<?xml version="1.0" encoding="UTF-8" standalone="no"?>
<!-- Created with Inkscape (http://www.inkscape.org/) -->

<svg
   version="1.1"
   id="svg1"
   width="220"
   height="197"
   viewBox="0 0 220 197"
   xml:space="preserve"
   sodipodi:docname="hootAbout.svg"
   inkscape:version="1.3.1 (91b66b0783, 2023-11-16)"
   xmlns:inkscape="http://www.inkscape.org/namespaces/inkscape"
   xmlns:sodipodi="http://sodipodi.sourceforge.net/DTD/sodipodi-0.dtd"
   xmlns="http://www.w3.org/2000/svg"
   xmlns:svg="http://www.w3.org/2000/svg"><sodipodi:namedview
     id="namedview1"
     pagecolor="#ffffff"
     bordercolor="#000000"
     borderopacity="0.25"
     inkscape:showpageshadow="2"
     inkscape:pageopacity="0.0"
     inkscape:pagecheckerboard="0"
     inkscape:deskcolor="#d1d1d1"
     inkscape:zoom="5.5625043"
     inkscape:cx="92.494311"
     inkscape:cy="73.078596"
     inkscape:window-width="1920"
     inkscape:window-height="991"
     inkscape:window-x="-9"
     inkscape:window-y="-9"
     inkscape:window-maximized="1"
     inkscape:current-layer="svg1" /><defs
     id="defs1"><inkscape:path-effect
       effect="bspline"
       id="path-effect2"
       is_visible="true"
       lpeversion="1.3"
       weight="33.333333"
       steps="2"
       helper_size="0"
       apply_no_weight="true"
       apply_with_weight="true"
       only_selected="false"
       uniform="false" /><clipPath
       clipPathUnits="userSpaceOnUse"
       id="clipPath9"><path
         id="path10"
         style="fill:#ff0000;fill-opacity:1;fill-rule:nonzero;stroke:none"
         d="m 51.892578,20.416016 c -0.222798,0.184799 -0.467736,0.366493 -0.742187,0.541015 -0.610187,0.388013 -1.229298,0.762677 -1.835938,1.15625 -0.574152,0.350577 -1.086686,0.789659 -1.607422,1.212891 -0.537425,0.419836 -0.996996,0.925335 -1.455078,1.427734 -0.39434,0.408217 -0.649483,0.912452 -0.927734,1.400391 -0.290572,0.492282 -0.514866,1.018684 -0.757813,1.535156 -0.250765,0.509735 -0.528543,1.004762 -0.748047,1.529297 -0.25525,0.526724 -0.513529,1.052207 -0.810547,1.556641 -0.131491,0.224866 -0.07769,0.124964 -0.169921,0.302734 -1.471548,2.836249 -3.766488,3.12436 -4.927735,1.925781 V 44.894531 H 78.876953 V 20.416016 Z m -13.501953,7.191406 c -0.07075,0.09397 -0.142151,0.187303 -0.212891,0.28125 -0.06166,0.08773 -0.123889,0.173989 -0.185546,0.261719 -0.02707,0.03851 -0.05477,0.07199 -0.08203,0.109375 v 0.21875 c 0.0071,-0.01318 0.01234,-0.02585 0.01953,-0.03906 0.195857,-0.359782 0.100747,-0.194223 0.277343,-0.496094 0.05705,-0.09635 0.120215,-0.216163 0.183594,-0.335937 z" /></clipPath><clipPath
       clipPathUnits="userSpaceOnUse"
       id="clipPath24"><path
         id="path25"
         style="fill:#ff0000;fill-opacity:1;fill-rule:nonzero;stroke:none"
         d="m 68.130859,66.507812 c -0.03747,1.268333 -1.261923,2.654741 -3.783203,3.154297 -0.542131,0.107417 -1.065139,0.298995 -1.585937,0.480469 -0.614549,0.246901 -1.227472,0.49643 -1.835938,0.757813 -0.421248,0.14766 -0.789634,0.395214 -1.1875,0.59375 -0.534639,0.292371 -1.105087,0.5135 -1.669922,0.740234 -0.274652,0.103873 -0.554464,0.189575 -0.835937,0.269531 -0.267715,0.143106 -0.536028,0.285781 -0.798828,0.4375 -0.6802,0.380274 -1.328395,0.811993 -2.00586,1.197266 -0.584479,0.375505 -1.193838,0.709647 -1.798828,1.050781 -0.377467,0.195508 -0.760357,0.376944 -1.148437,0.548828 v 18.66211 H 100.35742 V 66.507812 Z" /></clipPath></defs><path
     style="fill:#2abbec;fill-opacity:1;stroke:#2abbec;stroke-width:0.474746;stroke-linecap:round;stroke-linejoin:bevel;stroke-opacity:1"
     d="m 93.517379,75.532606 c -8.538322,-4.90843 -26.788168,-7.901376 -35.293888,-8.619668 -8.50572,-0.71829 -7.267363,0.838011 -4.138767,5.267642 3.128594,4.429632 8.147203,11.732273 13.687396,15.952337 5.540193,4.220065 11.601627,5.357361 17.011451,5.836229 5.409824,0.47887 10.167725,0.299297 13.133337,-3.202516 2.965612,-3.501815 4.138792,-10.325593 -4.399529,-15.234024 z"
     id="path1"
     clip-path="url(#clipPath24)" /><path
     style="fill:#2abbec;fill-opacity:1;stroke:#2abbec;stroke-width:1.09477;stroke-linecap:round;stroke-linejoin:round;stroke-dasharray:none;stroke-opacity:1"
     d="m 161.91251,76.618095 c 1.3402,-5.614482 3.77396,-2.503591 5.83039,1.390253 2.05643,3.893845 3.73546,8.570459 4.68278,11.859457 0.94732,3.288988 1.16287,5.190181 1.32062,6.938993 0.15775,1.748821 0.25768,3.345142 -0.21888,5.046202 -0.47656,1.70107 -1.52957,3.50677 -2.7562,4.84062 -1.22663,1.33385 -2.6268,2.19577 -4.43778,2.82024 -1.81098,0.62447 -4.03267,1.01147 -5.02021,-5.96512 -0.98754,-6.976577 -0.74091,-21.316157 0.59928,-26.930645 z"
     id="path22-9" /><path
     style="fill:#32cbff;fill-opacity:1;stroke:#32cbff;stroke-width:1.18752;stroke-linecap:round;stroke-linejoin:round;stroke-dasharray:none;stroke-opacity:1"
     d="m 156.19703,34.515295 c -1.61166,0.295456 -4.29275,2.462125 -7.10942,3.883128 -2.81668,1.421003 -5.76883,2.096317 -4.47342,4.248952 1.29541,2.152636 6.83822,5.782438 9.60969,7.597377 2.77146,1.814937 2.77146,1.814937 3.17815,0.464258 0.40669,-1.350678 1.22003,-4.051926 1.53634,-6.500003 0.3163,-2.448075 0.13556,-4.64284 -0.22594,-6.528141 -0.3615,-1.8853 -0.90372,-3.461029 -2.5154,-3.165571 z"
     id="path23" /><path
     style="fill:#32cbff;fill-opacity:1;stroke:#32cbff;stroke-width:1.18752;stroke-linecap:round;stroke-linejoin:round;stroke-dasharray:none;stroke-opacity:1"
     d="m 97.539496,32.687325 c 1.611665,0.295456 4.292754,2.462125 7.109424,3.883128 2.81667,1.421003 5.76883,2.096317 5.13596,4.637424 -0.63286,2.541107 -4.85054,6.947736 -7.84801,8.312484 -2.99745,1.364749 -4.77435,-0.312582 -5.843565,-2.051715 -1.069216,-1.739134 -1.430704,-3.539966 -1.521081,-5.537826 -0.09035,-1.997858 0.09035,-4.192623 0.451876,-6.077924 0.361499,-1.8853 0.903721,-3.461029 2.515396,-3.165571 z"
     id="path23-6" /><path
     style="fill:#32cbff;fill-opacity:1;stroke:#32cbff;stroke-width:0.312241;stroke-dasharray:none;stroke-opacity:1"
     d="m 128.04521,36.607381 c -4.51524,-0.246253 -7.9898,-0.178346 -11.44655,0.334465 -3.45674,0.512809 -6.89533,1.470464 -10.69797,3.896791 -3.80265,2.426328 -7.968885,6.321037 -11.171444,12.009611 -3.20256,5.688573 -5.4411,13.170478 -6.903006,18.20195 -1.461906,5.031472 -2.147104,7.612259 -2.871856,10.412414 -0.724752,2.800164 -1.489013,5.819524 -1.686666,9.391802 -0.197654,3.572286 0.171299,7.697271 1.409975,11.576506 1.238674,3.87924 3.346978,7.51251 5.863844,10.32632 2.516867,2.81381 5.442142,4.808 9.25039,6.59737 3.808243,1.78937 8.499133,3.37376 13.181823,4.3709 4.68269,0.99714 9.35673,1.40691 13.837,1.4069 4.48028,0 8.76654,-0.40977 13.50567,-1.22022 4.73912,-0.81046 9.93072,-2.02152 14.05526,-4.09775 4.12453,-2.07624 7.18157,-5.01746 9.73797,-8.18091 2.55638,-3.16345 4.61198,-6.54895 5.62662,-10.89262 1.01465,-4.343668 0.98829,-9.645112 -0.39534,-14.741037 -1.38363,-5.095926 -4.12443,-9.98581 -5.69751,-14.401635 -1.57308,-4.415826 -1.97839,-8.357253 -2.8527,-12.333977 -0.87429,-3.976722 -2.21749,-7.988246 -5.14882,-11.542462 -2.93132,-3.554217 -7.45041,-6.650681 -12.48807,-8.479223 -5.03766,-1.828541 -10.59339,-2.388943 -15.10862,-2.635195 z"
     id="path20" /><path
     style="fill:#f8e9d2;fill-opacity:1;stroke:#faeedb;stroke-width:0.312241;stroke-dasharray:none;stroke-opacity:1"
     d="m 122.12688,51.406372 c -2.78175,-0.70258 -6.14244,-2.078464 -9.00894,-2.737132 -2.8665,-0.658668 -5.23871,-0.60012 -7.69571,0.248846 -2.45701,0.848967 -4.99866,2.488286 -7.082499,5.472394 -2.083843,2.984108 -3.70973,7.312713 -4.006267,11.44045 -0.296539,4.127736 0.736328,8.054188 2.707219,10.939607 1.97089,2.885417 4.879667,4.729654 8.381607,5.271218 3.50195,0.541563 7.59683,-0.219547 10.90107,-0.865659 3.30423,-0.646112 5.81764,-1.177193 8.93832,-1.177185 3.12069,0 6.84844,0.531081 10.6809,1.062806 3.83246,0.531725 7.76931,1.064045 10.98887,0.141889 3.21955,-0.922155 5.72147,-3.29872 7.28311,-5.540923 1.56164,-2.242199 2.18294,-4.349895 2.5642,-6.750401 0.38125,-2.400507 0.52245,-5.093674 -0.35304,-8.196767 -0.87549,-3.103094 -2.76761,-6.615921 -5.28111,-8.972502 -2.51349,-2.356581 -5.6482,-3.556797 -8.21816,-4.054455 -2.56996,-0.497658 -4.57503,-0.292744 -6.74963,0.570858 -2.17459,0.863602 -4.51856,2.385829 -6.79199,3.132319 -2.27343,0.74649 -4.4762,0.717216 -7.25795,0.01464 z"
     id="path19" /><ellipse
     style="fill:#f8e9d2;fill-opacity:1;stroke:#faeedb;stroke-width:0.443072;stroke-dasharray:none;stroke-opacity:1"
     id="path6"
     ry="20.230164"
     rx="25.84845"
     cy="101.69901"
     cx="125.67993" /><path
     style="fill:#edb536;fill-opacity:1;stroke:#ee88ee;stroke-width:0.285704;stroke-dasharray:none;stroke-opacity:0.133333"
     d="m 125.59426,71.440392 c 1.50532,0.09309 2.94844,-1.427286 3.28433,-2.575327 0.33589,-1.148041 -0.43542,-1.923725 -1.26895,-2.435689 -0.83354,-0.511964 -1.72925,-0.760182 -2.84892,-0.465408 -1.11968,0.294774 -2.46324,1.132512 -2.35126,2.404675 0.11198,1.272163 1.67948,2.978666 3.1848,3.071749 z"
     id="path11" /><ellipse
     style="fill:#62466b;fill-opacity:1;stroke:#62466b;stroke-width:0.289451;stroke-dasharray:none;stroke-opacity:1"
     id="path4"
     cx="139.56102"
     cy="65.914017"
     rx="6.2391372"
     ry="6.4673538" /><ellipse
     style="fill:#62466b;fill-opacity:1;stroke:#62466b;stroke-width:0.289451;stroke-dasharray:none;stroke-opacity:1"
     id="path4-3"
     cx="111.79883"
     cy="65.914017"
     rx="6.2391372"
     ry="6.4673538" /><path
     style="fill:none;fill-opacity:1;stroke:#13aee7;stroke-width:1.20093;stroke-linecap:round;stroke-linejoin:round;stroke-dasharray:none;stroke-opacity:1"
     d="m 109.16347,93.974122 c 0.91782,1.607556 1.83565,3.215117 2.73354,3.194418 0.89788,-0.0207 1.77578,-1.66959 2.65371,-3.318514"
     id="path21" /><path
     style="fill:none;fill-opacity:1;stroke:#13ade7;stroke-width:1.20093;stroke-linecap:round;stroke-linejoin:round;stroke-dasharray:none;stroke-opacity:1"
     d="m 136.8674,94.629358 c 0.91782,1.607556 1.83565,3.215117 2.73354,3.194418 0.89788,-0.0207 1.77579,-1.66959 2.65371,-3.318514"
     id="path21-4" /><path
     style="fill:none;fill-opacity:1;stroke:#13aee7;stroke-width:1.20093;stroke-linecap:round;stroke-linejoin:round;stroke-dasharray:none;stroke-opacity:1"
     d="m 122.9863,93.974122 c 0.91782,1.607556 1.83565,3.215117 2.73354,3.194418 0.89788,-0.0207 1.77579,-1.66959 2.65371,-3.318514"
     id="path21-2" /><path
     style="fill:none;fill-opacity:1;stroke:#13aee7;stroke-width:1.20093;stroke-linecap:round;stroke-linejoin:round;stroke-dasharray:none;stroke-opacity:1"
     d="m 129.22387,106.26391 c 0.91782,1.60755 1.83565,3.21511 2.73354,3.19441 0.89787,-0.0207 1.77578,-1.66959 2.6537,-3.31851"
     id="path21-7" /><path
     style="fill:none;fill-opacity:1;stroke:#13aee7;stroke-width:1.20093;stroke-linecap:round;stroke-linejoin:round;stroke-dasharray:none;stroke-opacity:1"
     d="m 115.48649,106.26391 c 0.91782,1.60755 1.83565,3.21511 2.73354,3.19441 0.89788,-0.0207 1.77578,-1.66959 2.65371,-3.31851"
     id="path21-40" /><g
     id="layer2"><path
       style="fill:#a58061;fill-opacity:1;stroke:#a58061;stroke-width:1.5;stroke-linecap:round;stroke-linejoin:bevel;stroke-dasharray:none;stroke-opacity:1"
       d="m 220,103.01062 c -13.99613,6.38003 -27.99225,12.76006 -46.56354,16.81106 -18.57128,4.05099 -41.71679,5.77289 -58.39312,5.44597 -16.676338,-0.32691 -26.88242,-2.70254 -40.850175,-3.97573 -13.967756,-1.27319 -31.69586,-1.4438 -49.424318,-1.61441 0,0 21.227625,1.59613 21.227625,1.59613 0,0 25.067769,1.92501 25.067769,1.92501 10.381513,2.68436 20.763024,5.36873 22.003859,6.78807 1.240836,1.41935 -6.658689,1.57367 -15.553044,3.00118 -8.894356,1.42752 -18.782987,4.12812 -28.671816,6.82877 0,0 -11.805712,0.69445 -11.805712,0.69445 0,0 10.879774,0.69445 10.879774,0.69445 0,0 25.694785,-5.32414 25.694785,-5.32414 6.839273,-0.38581 13.678546,-0.77161 21.712345,-2.12102 8.033798,-1.3494 17.261578,-3.66226 28.870118,-4.70636 11.60855,-1.0441 25.59647,-0.81932 38.5428,-2.10924 12.94633,-1.28993 24.8495,-4.09441 34.21972,-6.08865 9.37022,-1.99424 16.2065,-3.17803 23.04293,-4.36184"
       id="path26" /><rect
       style="fill:#edb536;fill-opacity:1;stroke:#ebab1b;stroke-width:1.10488;stroke-linecap:round;stroke-linejoin:bevel;stroke-dasharray:none;stroke-opacity:1"
       id="rect26-91-0"
       width="3.8082778"
       height="8.2457781"
       x="144.04074"
       y="118.02782"
       ry="2.3869367" /><rect
       style="fill:#edb536;fill-opacity:1;stroke:#ebab1b;stroke-width:1.10488;stroke-linecap:round;stroke-linejoin:bevel;stroke-dasharray:none;stroke-opacity:1"
       id="rect26-91-7"
       width="3.8082778"
       height="8.2457781"
       x="139.47517"
       y="118.02782"
       ry="2.3869367" /><rect
       style="fill:#edb536;fill-opacity:1;stroke:#ebab1b;stroke-width:1.10488;stroke-linecap:round;stroke-linejoin:bevel;stroke-dasharray:none;stroke-opacity:1"
       id="rect26-91-8"
       width="3.8082778"
       height="8.2457781"
       x="135.6669"
       y="118.02782"
       ry="2.3869367" /><rect
       style="fill:#edb536;fill-opacity:1;stroke:#ebab1b;stroke-width:1.10488;stroke-linecap:round;stroke-linejoin:bevel;stroke-dasharray:none;stroke-opacity:1"
       id="rect26-91-0-3"
       width="3.8082778"
       height="8.2457781"
       x="112.99258"
       y="118.37069"
       ry="2.3869367" /><rect
       style="fill:#edb536;fill-opacity:1;stroke:#ebab1b;stroke-width:1.10488;stroke-linecap:round;stroke-linejoin:bevel;stroke-dasharray:none;stroke-opacity:1"
       id="rect26-91-7-6"
       width="3.8082778"
       height="8.2457781"
       x="108.42701"
       y="118.37069"
       ry="2.3869367" /><rect
       style="fill:#edb536;fill-opacity:1;stroke:#ebab1b;stroke-width:1.10488;stroke-linecap:round;stroke-linejoin:bevel;stroke-dasharray:none;stroke-opacity:1"
       id="rect26-91-8-2"
       width="3.8082778"
       height="8.2457781"
       x="104.61874"
       y="118.37069"
       ry="2.3869367" /><path
       style="fill:#7dce82;fill-opacity:1;stroke:#7dce82;stroke-width:0.165456;stroke-linecap:round;stroke-linejoin:bevel;stroke-dasharray:none;stroke-opacity:1"
       d="m 30.744786,43.368473 c 2.545098,0.559921 7.278981,1.425255 10.333112,3.639526 3.054132,2.214271 4.428457,5.777337 4.606604,8.933286 0.178147,3.15595 -0.839872,5.904601 -3.944944,7.049891 -3.105072,1.145289 -8.296968,0.687181 -11.020226,-3.028733 -2.723257,-3.715913 -2.977762,-10.689342 -2.926856,-14.048869 0.05091,-3.359527 0.407212,-3.105023 2.95231,-2.545101 z"
       id="path27-4"
       transform="matrix(0.22059516,-0.32686615,0.29515169,0.19919174,9.9431856,143.06656)" /><path
       style="fill:#7dce82;fill-opacity:1;stroke:#7dce82;stroke-width:0.165456;stroke-linecap:round;stroke-linejoin:bevel;stroke-dasharray:none;stroke-opacity:1"
       d="m 30.744786,43.368473 c 2.545098,0.559921 7.278981,1.425255 10.333112,3.639526 3.054132,2.214271 4.428457,5.777337 4.606604,8.933286 0.178147,3.15595 -0.839872,5.904601 -3.944944,7.049891 -3.105072,1.145289 -8.296968,0.687181 -11.020226,-3.028733 -2.723257,-3.715913 -2.977762,-10.689342 -2.926856,-14.048869 0.05091,-3.359527 0.407212,-3.105023 2.95231,-2.545101 z"
       id="path27-0"
       transform="matrix(0.39433958,0,0,0.35607846,29.334751,97.345772)" /><path
       style="fill:#7dce82;fill-opacity:1;stroke:#7dce82;stroke-width:0.165456;stroke-linecap:round;stroke-linejoin:bevel;stroke-dasharray:none;stroke-opacity:1"
       d="m 30.744786,43.368473 c 2.545098,0.559921 7.278981,1.425255 10.333112,3.639526 3.054132,2.214271 4.428457,5.777337 4.606604,8.933286 0.178147,3.15595 -0.839872,5.904601 -3.944944,7.049891 -3.105072,1.145289 -8.296968,0.687181 -11.020226,-3.028733 -2.723257,-3.715913 -2.977762,-10.689342 -2.926856,-14.048869 0.05091,-3.359527 0.407212,-3.105023 2.95231,-2.545101 z"
       id="path27-44"
       transform="matrix(0.35336487,0.17503421,-0.15805137,0.31907935,62.318239,93.72309)" /><path
       style="fill:#7dce82;fill-opacity:1;stroke:#7dce82;stroke-width:0.165456;stroke-linecap:round;stroke-linejoin:bevel;stroke-dasharray:none;stroke-opacity:1"
       d="m 30.744786,43.368473 c 2.545098,0.559921 7.278981,1.425255 10.333112,3.639526 3.054132,2.214271 4.428457,5.777337 4.606604,8.933286 0.178147,3.15595 -0.839872,5.904601 -3.944944,7.049891 -3.105072,1.145289 -8.296968,0.687181 -11.020226,-3.028733 -2.723257,-3.715913 -2.977762,-10.689342 -2.926856,-14.048869 0.05091,-3.359527 0.407212,-3.105023 2.95231,-2.545101 z"
       id="path27-5"
       transform="matrix(-0.06953436,0.3475363,-0.22721746,0.04879186,87.745019,115.24922)" /><path
       style="fill:#7dce82;fill-opacity:1;stroke:#48ba4f;stroke-width:1.05747;stroke-linecap:round;stroke-linejoin:bevel;stroke-dasharray:none;stroke-opacity:1"
       d="m 30.744786,43.368473 c 2.545098,0.559921 7.278981,1.425255 10.333112,3.639526 3.054132,2.214271 4.428457,5.777337 4.606604,8.933286 0.178147,3.15595 -0.839872,5.904601 -3.944944,7.049891 -3.105072,1.145289 -8.296968,0.687181 -11.020226,-3.028733 -2.723257,-3.715913 -2.977762,-10.689342 -2.926856,-14.048869 0.05091,-3.359527 0.407212,-3.105023 2.95231,-2.545101 z"
       id="path27-9"
       transform="matrix(0.31802579,0,0,0.35636739,52.625119,98.911296)" /><path
       style="fill:#7dce82;fill-opacity:1;stroke:#48ba4f;stroke-width:0.966052;stroke-linecap:round;stroke-linejoin:bevel;stroke-dasharray:none;stroke-opacity:1"
       d="m 30.744786,43.368473 c 2.545098,0.559921 7.278981,1.425255 10.333112,3.639526 3.054132,2.214271 4.428457,5.777337 4.606604,8.933286 0.178147,3.15595 -0.839872,5.904601 -3.944944,7.049891 -3.105072,1.145289 -8.296968,0.687181 -11.020226,-3.028733 -2.723257,-3.715913 -2.977762,-10.689342 -2.926856,-14.048869 0.05091,-3.359527 0.407212,-3.105023 2.95231,-2.545101 z"
       id="path27-04"
       transform="matrix(0.11145962,0.37825977,-0.34155881,0.10064516,63.149497,96.827554)" /><path
       style="fill:#7dce82;fill-opacity:1;stroke:#48ba4f;stroke-width:0.966052;stroke-linecap:round;stroke-linejoin:bevel;stroke-dasharray:none;stroke-opacity:1"
       d="m 30.744786,43.368473 c 2.545098,0.559921 7.278981,1.425255 10.333112,3.639526 3.054132,2.214271 4.428457,5.777337 4.606604,8.933286 0.178147,3.15595 -0.839872,5.904601 -3.944944,7.049891 -3.105072,1.145289 -8.296968,0.687181 -11.020226,-3.028733 -2.723257,-3.715913 -2.977762,-10.689342 -2.926856,-14.048869 0.05091,-3.359527 0.407212,-3.105023 2.95231,-2.545101 z"
       id="path27-2"
       transform="matrix(0.39433958,0,0,0.35607846,20.681519,118.28622)" /><path
       style="fill:#7dce82;fill-opacity:1;stroke:#7dce82;stroke-width:0.966052;stroke-linecap:round;stroke-linejoin:bevel;stroke-dasharray:none;stroke-opacity:1"
       d="m 30.744786,43.368473 c 2.545098,0.559921 7.278981,1.425255 10.333112,3.639526 3.054132,2.214271 4.428457,5.777337 4.606604,8.933286 0.178147,3.15595 -0.839872,5.904601 -3.944944,7.049891 -3.105072,1.145289 -8.296968,0.687181 -11.020226,-3.028733 -2.723257,-3.715913 -2.977762,-10.689342 -2.926856,-14.048869 0.05091,-3.359527 0.407212,-3.105023 2.95231,-2.545101 z"
       id="path27-45"
       transform="matrix(0.39433958,0,0,0.35607846,8.15446,97.090454)" /><path
       style="fill:#7dce82;fill-opacity:1;stroke:#48ba4f;stroke-width:0.966052;stroke-linecap:round;stroke-linejoin:bevel;stroke-dasharray:none;stroke-opacity:1"
       d="m 30.744786,43.368473 c 2.545098,0.559921 7.278981,1.425255 10.333112,3.639526 3.054132,2.214271 4.428457,5.777337 4.606604,8.933286 0.178147,3.15595 -0.839872,5.904601 -3.944944,7.049891 -3.105072,1.145289 -8.296968,0.687181 -11.020226,-3.028733 -2.723257,-3.715913 -2.977762,-10.689342 -2.926856,-14.048869 0.05091,-3.359527 0.407212,-3.105023 2.95231,-2.545101 z"
       id="path27"
       transform="matrix(0.05512068,0.3904682,-0.3525827,0.04977255,44.880466,99.127443)" /><path
       style="fill:#7dce82;fill-opacity:1;stroke:#48ba4f;stroke-width:0.362;stroke-linecap:round;stroke-linejoin:bevel;stroke-dasharray:none;stroke-opacity:1"
       d="m 48.445944,115.93456 2.836142,-5.61441"
       id="path31"
       transform="translate(-0.69827843,2.7598624)" /><path
       style="fill:#7dce82;fill-opacity:1;stroke:#48ba4f;stroke-width:0.362;stroke-linecap:round;stroke-linejoin:bevel;stroke-dasharray:none;stroke-opacity:1"
       d="m 65.173396,120.21771 -2.778262,-4.63043"
       id="path32" /><path
       style="fill:#7dce82;fill-opacity:1;stroke:#48ba4f;stroke-width:0.362;stroke-linecap:round;stroke-linejoin:bevel;stroke-dasharray:none;stroke-opacity:1"
       d="m 41.731811,111.76717 4.225273,4.74619"
       id="path33"
       transform="translate(-0.66502708,1.9285785)" /><path
       style="fill:#7dce82;fill-opacity:1;stroke:#48ba4f;stroke-width:0.362;stroke-linecap:round;stroke-linejoin:bevel;stroke-dasharray:none;stroke-opacity:1"
       d="m 66.099484,114.48755 0.405163,2.08369"
       id="path34" /><path
       style="fill:#7dce82;fill-opacity:1;stroke:#48ba4f;stroke-width:0.362;stroke-linecap:round;stroke-linejoin:bevel;stroke-dasharray:none;stroke-opacity:1"
       d="m 71.250844,133.12505 3.472828,-4.74619"
       id="path35" /><path
       style="fill:#7dce82;fill-opacity:1;stroke:#48ba4f;stroke-width:0.362;stroke-linecap:round;stroke-linejoin:bevel;stroke-dasharray:none;stroke-opacity:1"
       d="m 26.798652,118.42342 2.604621,-4.51468"
       id="path36" /><path
       style="fill:#7dce82;fill-opacity:1;stroke:#48ba4f;stroke-width:0.362;stroke-linecap:round;stroke-linejoin:bevel;stroke-dasharray:none;stroke-opacity:1"
       d="M 23.383705,117.38157 20.25816,113.38782"
       id="path37" /><path
       style="fill:#7dce82;fill-opacity:1;stroke:#48ba4f;stroke-width:0.362;stroke-linecap:round;stroke-linejoin:bevel;stroke-dasharray:none;stroke-opacity:1"
       d="m 37.275015,139.08674 -4.746197,-4.39891"
       id="path38" /><path
       style="fill:#7dce82;fill-opacity:1;stroke:#48ba4f;stroke-width:0.362;stroke-linecap:round;stroke-linejoin:bevel;stroke-dasharray:none;stroke-opacity:1"
       d="m 36.291047,141.80712 -5.614404,0.69457"
       id="path39" /><path
       style="fill:#7dce82;fill-opacity:1;stroke:#48ba4f;stroke-width:0.966052;stroke-linecap:round;stroke-linejoin:bevel;stroke-dasharray:none;stroke-opacity:1"
       d="m 30.744786,43.368473 c 2.545098,0.559921 7.278981,1.425255 10.333112,3.639526 3.054132,2.214271 4.428457,5.777337 4.606604,8.933286 0.178147,3.15595 -0.839872,5.904601 -3.944944,7.049891 -3.105072,1.145289 -8.296968,0.687181 -11.020226,-3.028733 -2.723257,-3.715913 -2.977762,-10.689342 -2.926856,-14.048869 0.05091,-3.359527 0.407212,-3.105023 2.95231,-2.545101 z"
       id="path27-04-5"
       transform="matrix(-0.10177834,-0.38097883,0.34401405,-0.09190322,93.131207,152.77503)" /><path
       style="fill:#7dce82;fill-opacity:1;stroke:#7dce82;stroke-width:0.966052;stroke-linecap:round;stroke-linejoin:bevel;stroke-dasharray:none;stroke-opacity:1"
       d="m 30.744786,43.368473 c 2.545098,0.559921 7.278981,1.425255 10.333112,3.639526 3.054132,2.214271 4.428457,5.777337 4.606604,8.933286 0.178147,3.15595 -0.839872,5.904601 -3.944944,7.049891 -3.105072,1.145289 -8.296968,0.687181 -11.020226,-3.028733 -2.723257,-3.715913 -2.977762,-10.689342 -2.926856,-14.048869 0.05091,-3.359527 0.407212,-3.105023 2.95231,-2.545101 z"
       id="path27-45-7"
       transform="matrix(-0.38850834,-0.06756459,0.06100908,-0.350813,124.51526,154.44273)" /><path
       style="fill:#7dce82;fill-opacity:1;stroke:#48ba4f;stroke-width:0.966052;stroke-linecap:round;stroke-linejoin:bevel;stroke-dasharray:none;stroke-opacity:1"
       d="m 30.744786,43.368473 c 2.545098,0.559921 7.278981,1.425255 10.333112,3.639526 3.054132,2.214271 4.428457,5.777337 4.606604,8.933286 0.178147,3.15595 -0.839872,5.904601 -3.944944,7.049891 -3.105072,1.145289 -8.296968,0.687181 -11.020226,-3.028733 -2.723257,-3.715913 -2.977762,-10.689342 -2.926856,-14.048869 0.05091,-3.359527 0.407212,-3.105023 2.95231,-2.545101 z"
       id="path27-04-53"
       transform="matrix(-0.30384295,-0.31045145,0.22330337,-0.34442784,109.60241,165.20656)" /><path
       style="fill:#7dce82;fill-opacity:1;stroke:#7dce82;stroke-width:0.966052;stroke-linecap:round;stroke-linejoin:bevel;stroke-dasharray:none;stroke-opacity:1"
       d="m 30.744786,43.368473 c 2.545098,0.559921 7.278981,1.425255 10.333112,3.639526 3.054132,2.214271 4.428457,5.777337 4.606604,8.933286 0.178147,3.15595 -0.839872,5.904601 -3.944944,7.049891 -3.105072,1.145289 -8.296968,0.687181 -11.020226,-3.028733 -2.723257,-3.715913 -2.977762,-10.689342 -2.926856,-14.048869 0.05091,-3.359527 0.407212,-3.105023 2.95231,-2.545101 z"
       id="path27-45-3"
       transform="matrix(0.39433958,0,0,0.35607846,183.72612,89.169518)" /><path
       style="fill:#7dce82;fill-opacity:1;stroke:#48ba4f;stroke-width:0.966052;stroke-linecap:round;stroke-linejoin:bevel;stroke-dasharray:none;stroke-opacity:1"
       d="m 30.744786,43.368473 c 2.545098,0.559921 7.278981,1.425255 10.333112,3.639526 3.054132,2.214271 4.428457,5.777337 4.606604,8.933286 0.178147,3.15595 -0.839872,5.904601 -3.944944,7.049891 -3.105072,1.145289 -8.296968,0.687181 -11.020226,-3.028733 -2.723257,-3.715913 -2.977762,-10.689342 -2.926856,-14.048869 0.05091,-3.359527 0.407212,-3.105023 2.95231,-2.545101 z"
       id="path27-04-51"
       transform="matrix(0.28108793,0.36221076,-0.34444162,0.24101198,211.89714,80.21885)" /><path
       style="fill:#7dce82;fill-opacity:1;stroke:#7dce82;stroke-width:0.966052;stroke-linecap:round;stroke-linejoin:bevel;stroke-dasharray:none;stroke-opacity:1"
       d="m 30.744786,43.368473 c 2.545098,0.559921 7.278981,1.425255 10.333112,3.639526 3.054132,2.214271 4.428457,5.777337 4.606604,8.933286 0.178147,3.15595 -0.839872,5.904601 -3.944944,7.049891 -3.105072,1.145289 -8.296968,0.687181 -11.020226,-3.028733 -2.723257,-3.715913 -2.977762,-10.689342 -2.926856,-14.048869 0.05091,-3.359527 0.407212,-3.105023 2.95231,-2.545101 z"
       id="path27-45-39"
       transform="matrix(-0.38780765,-0.16879448,0.09474345,-0.38586508,184.58423,156.7294)" /><path
       style="fill:#7dce82;fill-opacity:1;stroke:#48ba4f;stroke-width:0.362;stroke-linecap:round;stroke-linejoin:bevel;stroke-dasharray:none;stroke-opacity:1"
       d="m 110.22539,131.89957 c 0.15454,2.434 0.30908,4.868 0.46362,7.302"
       id="path41" /><path
       style="fill:#7dce82;fill-opacity:1;stroke:#48ba4f;stroke-width:0.362;stroke-linecap:round;stroke-linejoin:bevel;stroke-dasharray:none;stroke-opacity:1"
       d="m 113.35482,131.43595 c 0.57952,1.35222 1.15905,2.70445 1.73857,4.05667"
       id="path42" /><path
       style="fill:#7dce82;fill-opacity:1;stroke:#48ba4f;stroke-width:0.362;stroke-linecap:round;stroke-linejoin:bevel;stroke-dasharray:none;stroke-opacity:1"
       d="m 107.44367,134.10176 c -0.54088,0.8886 -1.08177,1.77721 -1.62266,2.66581"
       id="path43" /><path
       style="fill:#7dce82;fill-opacity:1;stroke:#48ba4f;stroke-width:0.362;stroke-linecap:round;stroke-linejoin:bevel;stroke-dasharray:none;stroke-opacity:1"
       d="m 173.85708,126.68386 c 0.81133,2.08628 1.62267,4.17257 2.434,6.25885"
       id="path44" /><path
       style="fill:#7dce82;fill-opacity:1;stroke:#48ba4f;stroke-width:0.362;stroke-linecap:round;stroke-linejoin:bevel;stroke-dasharray:none;stroke-opacity:1"
       d="m 202.48554,109.06634 c 0.69543,-2.00901 1.39086,-4.01803 2.08629,-6.02704"
       id="path45" /><path
       style="fill:#7dce82;fill-opacity:1;stroke:#48ba4f;stroke-width:0.362;stroke-linecap:round;stroke-linejoin:bevel;stroke-dasharray:none;stroke-opacity:1"
       d="m 200.51516,110.68901 c -1.6613,-1.6613 -3.3226,-3.3226 -4.9839,-4.98391"
       id="path46" /><ellipse
       style="fill:none;fill-opacity:1;stroke:#6d4f36;stroke-width:0.0680588;stroke-linecap:round;stroke-linejoin:bevel;stroke-dasharray:none;stroke-opacity:1"
       id="path47"
       cx="93.407829"
       cy="125.58685"
       rx="2.0969043"
       ry="0.75092131" /></g><rect
     style="fill:#7e6770;stroke:#7e6770;stroke-width:0.903513;stroke-linecap:round;stroke-linejoin:round;stroke-dasharray:none;stroke-opacity:1;fill-opacity:1"
     id="rect1"
     width="1.7313317"
     height="46.644455"
     x="-6.0054836"
     y="48.872536"
     rx="0"
     ry="0"
     transform="matrix(-0.05348098,-0.99856887,0.68870265,0.72504391,0,0)" /><path
     style="fill:#2abbec;fill-opacity:1;stroke:#13a3d4;stroke-width:0.2679317;stroke-linecap:round;stroke-linejoin:round;stroke-dasharray:none;stroke-opacity:1"
     d="m 44.973748,27.625447 c -0.329588,-5.033704 4.044941,-8.329582 6.5618,-4.943716 2.516858,3.385866 3.17602,13.453073 0.988706,15.100944 -2.187315,1.647871 -7.220918,-5.123524 -7.550506,-10.157228 z"
     id="path2"
     inkscape:path-effect="#path-effect2"
     inkscape:original-d="m 40.269632,25.887621 c 4.374528,-3.295878 8.749057,-6.591756 13.123585,-9.887633 0.659189,10.067609 1.318351,20.134816 1.977527,30.202224 C 50.336939,39.430546 45.303336,32.659151 40.269632,25.887621 Z"
     transform="matrix(-0.00990602,-1.2964926,1.1913523,-0.01078026,29.916902,136.29)" /></svg>
