<?xml version="1.0" encoding="UTF-8" standalone="no"?>
<!-- Created with Inkscape (http://www.inkscape.org/) -->

<svg
   version="1.1"
   id="svg1"
   width="220"
   height="197"
   viewBox="0 0 220 197"
   sodipodi:docname="hoot.svg"
   inkscape:version="1.3.1 (91b66b0783, 2023-11-16)"
   xml:space="preserve"
   inkscape:export-filename="hootContact.svg"
   inkscape:export-xdpi="96"
   inkscape:export-ydpi="96"
   xmlns:inkscape="http://www.inkscape.org/namespaces/inkscape"
   xmlns:sodipodi="http://sodipodi.sourceforge.net/DTD/sodipodi-0.dtd"
   xmlns="http://www.w3.org/2000/svg"
   xmlns:svg="http://www.w3.org/2000/svg"><defs
     id="defs1"><inkscape:path-effect
       effect="bspline"
       id="path-effect10"
       is_visible="true"
       lpeversion="1.3"
       weight="33.333333"
       steps="2"
       helper_size="0"
       apply_no_weight="true"
       apply_with_weight="true"
       only_selected="false"
       uniform="false" /><inkscape:path-effect
       effect="bspline"
       id="path-effect1"
       is_visible="true"
       lpeversion="1.3"
       weight="33.333333"
       steps="2"
       helper_size="0"
       apply_no_weight="true"
       apply_with_weight="true"
       only_selected="false"
       uniform="false" /><inkscape:path-effect
       effect="bspline"
       id="path-effect24"
       is_visible="true"
       lpeversion="1.3"
       weight="33.333333"
       steps="2"
       helper_size="0"
       apply_no_weight="true"
       apply_with_weight="true"
       only_selected="false"
       uniform="false" /><inkscape:path-effect
       effect="bspline"
       id="path-effect22"
       is_visible="true"
       lpeversion="1.3"
       weight="33.333333"
       steps="2"
       helper_size="0"
       apply_no_weight="true"
       apply_with_weight="true"
       only_selected="false"
       uniform="false" /><inkscape:path-effect
       effect="bspline"
       id="path-effect21"
       is_visible="true"
       lpeversion="1.3"
       weight="33.333333"
       steps="2"
       helper_size="0"
       apply_no_weight="true"
       apply_with_weight="true"
       only_selected="false"
       uniform="false" /><inkscape:path-effect
       effect="bspline"
       id="path-effect20"
       is_visible="true"
       lpeversion="1.3"
       weight="33.333333"
       steps="2"
       helper_size="0"
       apply_no_weight="true"
       apply_with_weight="true"
       only_selected="false"
       uniform="false" /><inkscape:path-effect
       effect="bspline"
       id="path-effect12"
       is_visible="true"
       lpeversion="1.3"
       weight="33.333333"
       steps="2"
       helper_size="0"
       apply_no_weight="true"
       apply_with_weight="true"
       only_selected="false"
       uniform="false" /><inkscape:path-effect
       effect="bspline"
       id="path-effect22-5"
       is_visible="true"
       lpeversion="1.3"
       weight="33.333333"
       steps="2"
       helper_size="0"
       apply_no_weight="true"
       apply_with_weight="true"
       only_selected="false"
       uniform="false" /><inkscape:path-effect
       effect="bspline"
       id="path-effect22-7"
       is_visible="true"
       lpeversion="1.3"
       weight="33.333333"
       steps="2"
       helper_size="0"
       apply_no_weight="true"
       apply_with_weight="true"
       only_selected="false"
       uniform="false" /><inkscape:path-effect
       effect="bspline"
       id="path-effect22-6"
       is_visible="true"
       lpeversion="1.3"
       weight="33.333333"
       steps="2"
       helper_size="0"
       apply_no_weight="true"
       apply_with_weight="true"
       only_selected="false"
       uniform="false" /><inkscape:path-effect
       effect="bspline"
       id="path-effect22-1"
       is_visible="true"
       lpeversion="1.3"
       weight="33.333333"
       steps="2"
       helper_size="0"
       apply_no_weight="true"
       apply_with_weight="true"
       only_selected="false"
       uniform="false" /><inkscape:path-effect
       effect="bspline"
       id="path-effect24-9"
       is_visible="true"
       lpeversion="1.3"
       weight="33.333333"
       steps="2"
       helper_size="0"
       apply_no_weight="true"
       apply_with_weight="true"
       only_selected="false"
       uniform="false" /><inkscape:path-effect
       effect="bspline"
       id="path-effect1-5"
       is_visible="true"
       lpeversion="1.3"
       weight="33.333333"
       steps="2"
       helper_size="0"
       apply_no_weight="true"
       apply_with_weight="true"
       only_selected="false"
       uniform="false" /></defs><sodipodi:namedview
     id="namedview1"
     pagecolor="#ffffff"
     bordercolor="#000000"
     borderopacity="0.25"
     inkscape:showpageshadow="2"
     inkscape:pageopacity="0.0"
     inkscape:pagecheckerboard="0"
     inkscape:deskcolor="#d1d1d1"
     inkscape:zoom="6.5312309"
     inkscape:cx="123.10084"
     inkscape:cy="111.541"
     inkscape:window-width="1920"
     inkscape:window-height="991"
     inkscape:window-x="-9"
     inkscape:window-y="-9"
     inkscape:window-maximized="1"
     inkscape:current-layer="layer2" /><g
     inkscape:groupmode="layer"
     id="layer1"
     inkscape:label="hoot"><path
       style="fill:#2abbec;fill-opacity:1;stroke:#2abbec;stroke-width:0.362;stroke-linecap:round;stroke-linejoin:bevel;stroke-opacity:1"
       d="m 80.062708,74.537858 c -6.239271,-3.905498 -19.575117,-6.2869 -25.790565,-6.858424 -6.215448,-0.571523 -5.310534,0.666781 -3.024352,4.191312 2.286181,3.524532 5.953466,9.335035 10.001893,12.69282 4.048426,3.357785 8.477743,4.262699 12.430904,4.643721 3.953161,0.381023 7.429937,0.238142 9.597021,-2.548151 2.167083,-2.786294 3.024371,-8.21578 -3.214901,-12.121278 z"
       id="path1-8"
       inkscape:path-effect="#path-effect1-5"
       inkscape:original-d="M 87.159284,73.013761 C 73.823437,70.63236 60.487591,68.250958 47.151744,65.869557 c 0.90495,1.238354 1.809865,2.476658 2.714797,3.714986 3.667431,5.810735 7.334716,11.621238 11.002074,17.431857 4.429495,0.904951 8.858812,1.809865 13.288218,2.714797 3.476916,-0.142887 6.953692,-0.285768 10.430538,-0.428652 0.857321,-5.429703 1.714609,-10.859189 2.571913,-16.288784 z"
       transform="matrix(-1.3684806,0,0,1.2568001,266.45095,-16.215102)" /><path
       style="fill:#2abbec;fill-opacity:1;stroke:#2abbec;stroke-width:0.362;stroke-linecap:round;stroke-linejoin:bevel;stroke-opacity:1"
       d="m 80.062708,74.537858 c -6.239271,-3.905498 -19.575117,-6.2869 -25.790565,-6.858424 -6.215448,-0.571523 -5.310534,0.666781 -3.024352,4.191312 2.286181,3.524532 5.953466,9.335035 10.001893,12.69282 4.048426,3.357785 8.477743,4.262699 12.430904,4.643721 3.953161,0.381023 7.429937,0.238142 9.597021,-2.548151 2.167083,-2.786294 3.024371,-8.21578 -3.214901,-12.121278 z"
       id="path1"
       inkscape:path-effect="#path-effect1"
       inkscape:original-d="M 87.159284,73.013761 C 73.823437,70.63236 60.487591,68.250958 47.151744,65.869557 c 0.90495,1.238354 1.809865,2.476658 2.714797,3.714986 3.667431,5.810735 7.334716,11.621238 11.002074,17.431857 4.429495,0.904951 8.858812,1.809865 13.288218,2.714797 3.476916,-0.142887 6.953692,-0.285768 10.430538,-0.428652 0.857321,-5.429703 1.714609,-10.859189 2.571913,-16.288784 z"
       transform="matrix(1.3684806,0,0,1.2568001,-16.046884,-18.146581)" /><path
       style="fill:#32cbff;fill-opacity:1;stroke:#32cbff;stroke-width:1.19;stroke-linecap:round;stroke-linejoin:round;stroke-dasharray:none;stroke-opacity:1"
       d="m 129.11624,48.241716 c -1.56089,0.306345 -4.15751,2.552859 -6.88544,4.026228 -2.72794,1.473369 -5.58709,2.173569 -4.33249,4.405532 1.2546,2.231964 6.62279,5.99553 9.30694,7.877352 2.68415,1.881821 2.68415,1.881821 3.07803,0.481367 0.39387,-1.400453 1.18159,-4.201246 1.48793,-6.739538 0.30634,-2.538291 0.13129,-4.813936 -0.21882,-6.768713 -0.35011,-1.954777 -0.87525,-3.588574 -2.43615,-3.282228 z"
       id="path23"
       inkscape:path-effect="#path-effect24"
       inkscape:original-d="m 130.15198,46.301543 c -2.59663,2.246515 -5.19325,4.49303 -7.78987,6.739545 -2.85925,0.700226 -5.7184,1.400424 -8.5776,2.100637 5.3684,3.763716 10.73659,7.527283 16.10489,11.290924 v 0 c 0.78775,-2.800908 1.57547,-5.601701 2.36321,-8.402548 -0.17505,-2.275736 -0.3501,-4.551381 -0.52516,-6.827071 -0.52517,-1.633862 -1.05032,-3.267658 -1.57547,-4.901487 z"
       transform="matrix(1.0325294,0,0,0.96445822,22.880718,-12.011825)"
       sodipodi:nodetypes="cccccccc" /><path
       style="fill:#32cbff;fill-opacity:1;stroke:#32cbff;stroke-width:1.19;stroke-linecap:round;stroke-linejoin:round;stroke-dasharray:none;stroke-opacity:1"
       d="m 129.11624,48.241716 c -1.56089,0.306345 -4.15751,2.552859 -6.88544,4.026228 -2.72794,1.473369 -5.58709,2.173569 -4.97416,4.80832 0.61292,2.634751 4.69773,7.203771 7.60076,8.618812 2.90302,1.415042 4.62394,-0.324101 5.65947,-2.127324 1.03553,-1.803224 1.38563,-3.670419 1.47316,-5.741903 0.0875,-2.071483 -0.0875,-4.347128 -0.43764,-6.301905 -0.35011,-1.954777 -0.87525,-3.588574 -2.43615,-3.282228 z"
       id="path23-6"
       inkscape:path-effect="#path-effect24-9"
       inkscape:original-d="m 130.15198,46.301543 c -2.59663,2.246515 -5.19325,4.49303 -7.78987,6.739545 -2.85925,0.700226 -5.7184,1.400424 -8.5776,2.100637 4.08505,4.569291 8.16986,9.138311 12.25492,13.707607 1.72099,-1.739213 3.44191,-3.478355 5.16286,-5.217532 0.35012,-1.867271 0.70022,-3.734466 1.05032,-5.601699 -0.17505,-2.275736 -0.3501,-4.551381 -0.52516,-6.827071 -0.52517,-1.633862 -1.05032,-3.267658 -1.57547,-4.901487 z"
       transform="matrix(-1.0325294,0,0,0.96445822,230.85581,-13.839795)"
       sodipodi:nodetypes="cccccccc" /><path
       style="fill:#32cbff;fill-opacity:1;stroke:#32cbff;stroke-width:0.39;stroke-dasharray:none;stroke-opacity:1"
       d="m 98.583661,50.958214 c -5.741909,-0.302103 -10.160418,-0.218795 -14.556273,0.410321 -4.395854,0.629115 -8.768618,1.803966 -13.604338,4.780583 -4.83572,2.976618 -10.133818,7.754646 -14.206429,14.733387 -4.072612,6.97874 -6.919305,16.157539 -8.778373,22.330148 -1.859068,6.172609 -2.730417,9.338717 -3.652065,12.773947 -0.921648,3.43524 -1.893539,7.13939 -2.144889,11.52186 -0.251351,4.38248 0.217837,9.44301 1.793028,14.20206 1.57519,4.75905 4.256265,9.21634 7.456898,12.66832 3.200634,3.45198 6.92063,5.89846 11.76348,8.09365 4.84285,2.1952 10.808125,4.13893 16.762982,5.36222 5.954858,1.22329 11.898703,1.726 17.596155,1.72599 5.697453,0 11.148183,-0.50271 17.174803,-1.49697 6.02662,-0.99427 12.62864,-2.48 17.87371,-5.02712 5.24506,-2.54713 9.13262,-6.15541 12.38352,-10.03633 3.25089,-3.88093 5.86494,-8.03426 7.15523,-13.36307 1.2903,-5.32881 1.25678,-11.83262 -0.50274,-18.0843 -1.75953,-6.25168 -5.24493,-12.250588 -7.24538,-17.667922 -2.00045,-5.417334 -2.51587,-10.252676 -3.6277,-15.131319 -1.11182,-4.878642 -2.81993,-9.799978 -6.54762,-14.16029 -3.72769,-4.360312 -9.47449,-8.159054 -15.88076,-10.402308 -6.40626,-2.243254 -13.47133,-2.930755 -19.213239,-3.232857 z"
       id="path20"
       inkscape:path-effect="#path-effect21"
       inkscape:original-d="m 97.260349,50.572801 c -4.418597,0.08331 -8.837106,0.166618 -13.25579,0.249929 -4.373025,1.174921 -8.745789,2.349771 -13.118814,3.524691 -5.298415,4.778315 -10.596513,9.556343 -15.894928,14.334658 -2.846808,9.179166 -5.693501,18.357965 -8.540252,27.536948 -0.871385,3.166235 -1.742734,6.332343 -2.614101,9.498513 -0.971929,3.7043 -1.943819,7.40845 -2.915728,11.11267 0.469207,5.06073 0.938395,10.12126 1.407593,15.18189 2.681183,4.45747 5.362258,8.91476 8.043387,13.37214 3.720142,2.44657 7.440134,4.89306 11.160201,7.33959 5.965632,1.94386 11.930906,3.8876 17.896538,5.83145 5.944084,0.50273 11.88793,1.00543 17.831894,1.50814 5.450941,-0.50272 10.901671,-1.00543 16.352501,-1.50814 6.60241,-1.48582 13.20443,-2.97155 19.80685,-4.45737 3.88771,-3.60843 7.77527,-7.21671 11.66291,-10.82506 2.61415,-4.1535 5.2282,-8.30683 7.8423,-12.46024 -0.0335,-6.50421 -0.067,-13.00802 -0.10054,-19.51223 -3.48554,-5.99915 -6.97094,-11.998056 -10.4564,-17.997081 -0.51544,-4.835645 -1.03085,-9.670988 -1.5463,-14.506632 -1.70821,-4.921642 -3.41632,-9.842977 -5.12454,-14.764621 -5.74716,-3.798979 -11.49396,-7.597724 -17.24112,-11.396699 -7.06537,-0.68753 -14.13044,-1.375031 -21.195661,-2.062546 z"
       sodipodi:nodetypes="cccccccccccccccccccccc"
       transform="matrix(0.78636509,0,0,0.81512896,50.522458,-4.930135)" /><path
       style="fill:#f8e9d2;fill-opacity:1;stroke:#faeedb;stroke-width:0.39;stroke-dasharray:none;stroke-opacity:1"
       d="m 90.950964,68.45115 c -3.53748,-0.861924 -7.811188,-2.549859 -11.45644,-3.357912 -3.645251,-0.808054 -6.661926,-0.736228 -9.786433,0.305284 -3.124508,1.041512 -6.356659,3.052628 -9.006627,6.713531 -2.649969,3.660903 -4.717567,8.971235 -5.094666,14.035141 -0.3771,5.063906 0.93637,9.880876 3.4427,13.420708 2.50633,3.539828 6.20535,5.802338 10.658677,6.466728 4.453327,0.66439 9.660682,-0.26934 13.862596,-1.06199 4.201913,-0.79265 7.39815,-1.44418 11.36664,-1.44417 3.968491,0 8.708979,0.65153 13.582619,1.30385 4.87364,0.65232 9.88003,1.30537 13.97426,0.17407 4.09422,-1.1313 7.27584,-4.04687 9.26174,-6.797603 1.9859,-2.75073 2.77598,-5.33645 3.26082,-8.281391 0.48483,-2.944941 0.66439,-6.248918 -0.44895,-10.055792 -1.11334,-3.806874 -3.5195,-8.11641 -6.71585,-11.007462 -3.19634,-2.891053 -7.18266,-4.363478 -10.45082,-4.974005 -3.26815,-0.610527 -5.81795,-0.359138 -8.58332,0.700329 -2.76537,1.059466 -5.74614,2.926934 -8.6372,3.842728 -2.891067,0.915793 -5.692265,0.87988 -9.229746,0.01796 z"
       id="path19"
       inkscape:path-effect="#path-effect20"
       inkscape:original-d="m 91.687191,69.277161 c -4.273707,-1.687935 -8.547415,-3.37587 -12.821123,-5.063805 -3.016795,0.07183 -6.03347,0.143654 -9.050204,0.215481 -3.232281,2.011197 -6.464432,4.022313 -9.696648,6.03347 -2.067721,5.310649 -4.135319,10.620981 -6.20304,15.93163 1.313523,4.817163 2.626992,9.634133 3.940489,14.451203 3.699165,2.26259 7.398183,4.5251 11.097274,6.78765 5.207563,-0.93377 10.414918,-1.8675 15.622377,-2.80125 3.196367,-0.65156 6.392605,-1.30308 9.588907,-1.95462 4.740679,0.65155 9.481167,1.30308 14.221747,1.95462 5.0067,0.6531 10.01309,1.30615 15.01979,1.95925 3.18175,-2.9157 6.36337,-5.83127 9.54505,-8.746908 0.79012,-2.585824 1.5802,-5.171545 2.3703,-7.757318 0.17957,-3.304109 0.35913,-6.608086 0.5387,-9.912128 -2.40625,-4.309708 -4.81241,-8.619243 -7.21862,-12.928864 -3.98648,-1.472483 -7.9728,-2.944908 -11.9592,-4.417362 -2.54991,0.2514 -5.09971,0.502789 -7.64957,0.754184 -2.98088,1.86754 -5.96165,3.735005 -8.94247,5.602507 -2.801307,-0.03591 -5.602505,-0.07183 -8.403759,-0.10774 z"
       sodipodi:nodetypes="ccccccccccccccccccc"
       transform="matrix(0.78636509,0,0,0.81512896,50.606219,-4.390143)" /><ellipse
       style="fill:#f8e9d2;fill-opacity:1;stroke:#faeedb;stroke-width:0.443072;stroke-dasharray:none;stroke-opacity:1"
       id="path6"
       ry="20.230164"
       rx="25.84845"
       cy="101.69901"
       cx="125.67993" /><path
       style="fill:#edb536;fill-opacity:1;stroke:#ee88ee;stroke-width:0.3;stroke-dasharray:none;stroke-opacity:0.133333"
       d="m 96.556369,92.223805 c 1.765119,0.08753 3.457301,-1.342074 3.851161,-2.421575 0.39386,-1.079501 -0.510564,-1.808875 -1.487954,-2.290274 -0.977391,-0.481398 -2.027688,-0.714797 -3.340602,-0.437622 -1.312914,0.277176 -2.888361,1.064899 -2.757053,2.261111 0.131309,1.196213 1.969329,2.800834 3.734448,2.88836 z"
       id="path11"
       transform="matrix(0.85281593,0,0,1.0634926,43.249447,-26.638942)"
       inkscape:original-d="m 96.629308,93.740932 c 1.69218,-1.4296 3.384362,-2.859201 5.076542,-4.288801 -0.90446,-0.729402 -1.808884,-1.458776 -2.713325,-2.188164 -1.05034,-0.233408 -2.100637,-0.466808 -3.150956,-0.700212 -1.575509,0.787755 -3.150956,1.575478 -4.726434,2.363217 1.838095,1.604685 3.676115,3.209307 5.514173,4.81396 z"
       inkscape:path-effect="#path-effect12" /><ellipse
       style="fill:#62466b;fill-opacity:1;stroke:#62466b;stroke-width:0.289451;stroke-dasharray:none;stroke-opacity:1"
       id="path4"
       cx="139.56102"
       cy="65.914017"
       rx="6.2391372"
       ry="6.4673538" /><ellipse
       style="fill:#62466b;fill-opacity:1;stroke:#62466b;stroke-width:0.289451;stroke-dasharray:none;stroke-opacity:1"
       id="path4-3"
       cx="111.79883"
       cy="65.914017"
       rx="6.2391372"
       ry="6.4673538" /><path
       style="fill:none;fill-opacity:1;stroke:#13aee7;stroke-width:1.5;stroke-linecap:round;stroke-linejoin:round;stroke-dasharray:none;stroke-opacity:1"
       d="m 160.00482,84.341264 c 1.16717,1.97215 2.33435,3.944305 3.47617,3.918912 1.14181,-0.02539 2.25822,-2.048253 3.37465,-4.071153"
       id="path21"
       inkscape:path-effect="#path-effect22"
       inkscape:original-d="m 160.00482,84.341264 c 1.16717,1.972153 2.33435,3.944306 3.50153,5.916459 1.11645,-2.02294 2.23286,-4.0458 3.34929,-6.0687"
       transform="matrix(0.78636509,0,0,0.81512896,-16.658735,25.225115)" /><path
       style="fill:none;fill-opacity:1;stroke:#13ade7;stroke-width:1.5;stroke-linecap:round;stroke-linejoin:round;stroke-dasharray:none;stroke-opacity:1"
       d="m 160.00482,84.341264 c 1.16717,1.97215 2.33435,3.944305 3.47617,3.918912 1.14181,-0.02539 2.25822,-2.048253 3.37465,-4.071153"
       id="path21-4"
       inkscape:path-effect="#path-effect22-5"
       inkscape:original-d="m 160.00482,84.341264 c 1.16717,1.972153 2.33435,3.944306 3.50153,5.916459 1.11645,-2.02294 2.23286,-4.0458 3.34929,-6.0687"
       transform="matrix(0.78636509,0,0,0.81512896,11.045198,25.880351)" /><path
       style="fill:none;fill-opacity:1;stroke:#13aee7;stroke-width:1.5;stroke-linecap:round;stroke-linejoin:round;stroke-dasharray:none;stroke-opacity:1"
       d="m 160.00482,84.341264 c 1.16717,1.97215 2.33435,3.944305 3.47617,3.918912 1.14181,-0.02539 2.25822,-2.048253 3.37465,-4.071153"
       id="path21-2"
       inkscape:path-effect="#path-effect22-7"
       inkscape:original-d="m 160.00482,84.341264 c 1.16717,1.972153 2.33435,3.944306 3.50153,5.916459 1.11645,-2.02294 2.23286,-4.0458 3.34929,-6.0687"
       transform="matrix(0.78636509,0,0,0.81512896,-2.8359022,25.225115)" /><path
       style="fill:none;fill-opacity:1;stroke:#13aee7;stroke-width:1.5;stroke-linecap:round;stroke-linejoin:round;stroke-dasharray:none;stroke-opacity:1"
       d="m 160.00482,84.341264 c 1.16717,1.97215 2.33435,3.944305 3.47617,3.918912 1.14181,-0.02539 2.25822,-2.048253 3.37465,-4.071153"
       id="path21-7"
       inkscape:path-effect="#path-effect22-6"
       inkscape:original-d="m 160.00482,84.341264 c 1.16717,1.972153 2.33435,3.944306 3.50153,5.916459 1.11645,-2.02294 2.23286,-4.0458 3.34929,-6.0687"
       transform="matrix(0.78636509,0,0,0.81512896,3.4016618,37.514899)" /><path
       style="fill:none;fill-opacity:1;stroke:#13aee7;stroke-width:1.5;stroke-linecap:round;stroke-linejoin:round;stroke-dasharray:none;stroke-opacity:1"
       d="m 160.00482,84.341264 c 1.16717,1.97215 2.33435,3.944305 3.47617,3.918912 1.14181,-0.02539 2.25822,-2.048253 3.37465,-4.071153"
       id="path21-40"
       inkscape:path-effect="#path-effect22-1"
       inkscape:original-d="m 160.00482,84.341264 c 1.16717,1.972153 2.33435,3.944306 3.50153,5.916459 1.11645,-2.02294 2.23286,-4.0458 3.34929,-6.0687"
       transform="matrix(0.78636509,0,0,0.81512896,-10.335715,37.514899)" /></g><g
     inkscape:groupmode="layer"
     id="layer2"
     inkscape:label="treeImage"><rect
       style="fill:#e8e288;fill-opacity:1;stroke:#e8e288;stroke-width:1.76894;stroke-linecap:round;stroke-linejoin:bevel;stroke-opacity:1"
       id="rect1-0"
       width="84.364655"
       height="21.491198"
       x="83.497604"
       y="125.03411"
       ry="9.7272482" /><rect
       style="fill:#edb536;fill-opacity:1;stroke:#ebab1b;stroke-width:1.10488;stroke-linecap:round;stroke-linejoin:bevel;stroke-dasharray:none;stroke-opacity:1"
       id="rect26-91-0"
       width="3.8082778"
       height="8.2457781"
       x="144.04074"
       y="118.02782"
       ry="2.3869367" /><rect
       style="fill:#edb536;fill-opacity:1;stroke:#ebab1b;stroke-width:1.10488;stroke-linecap:round;stroke-linejoin:bevel;stroke-dasharray:none;stroke-opacity:1"
       id="rect26-91-7"
       width="3.8082778"
       height="8.2457781"
       x="139.47517"
       y="118.02782"
       ry="2.3869367" /><rect
       style="fill:#edb536;fill-opacity:1;stroke:#ebab1b;stroke-width:1.10488;stroke-linecap:round;stroke-linejoin:bevel;stroke-dasharray:none;stroke-opacity:1"
       id="rect26-91-8"
       width="3.8082778"
       height="8.2457781"
       x="135.6669"
       y="118.02782"
       ry="2.3869367" /><rect
       style="fill:#edb536;fill-opacity:1;stroke:#ebab1b;stroke-width:1.10488;stroke-linecap:round;stroke-linejoin:bevel;stroke-dasharray:none;stroke-opacity:1"
       id="rect26-91-0-3"
       width="3.8082778"
       height="8.2457781"
       x="112.99258"
       y="118.37069"
       ry="2.3869367" /><rect
       style="fill:#edb536;fill-opacity:1;stroke:#ebab1b;stroke-width:1.10488;stroke-linecap:round;stroke-linejoin:bevel;stroke-dasharray:none;stroke-opacity:1"
       id="rect26-91-7-6"
       width="3.8082778"
       height="8.2457781"
       x="108.42701"
       y="118.37069"
       ry="2.3869367" /><rect
       style="fill:#edb536;fill-opacity:1;stroke:#ebab1b;stroke-width:1.10488;stroke-linecap:round;stroke-linejoin:bevel;stroke-dasharray:none;stroke-opacity:1"
       id="rect26-91-8-2"
       width="3.8082778"
       height="8.2457781"
       x="104.61874"
       y="118.37069"
       ry="2.3869367" /><rect
       style="fill:#e888a0;fill-opacity:1;stroke:#e888a0;stroke-width:0.735589;stroke-linecap:round;stroke-linejoin:bevel;stroke-opacity:1"
       id="rect1-0-9"
       width="14.015042"
       height="22.370314"
       x="83.051613"
       y="124.67167"
       ry="7.2033706" /><rect
       style="fill:#e888a0;fill-opacity:1;stroke:#e888a0;stroke-width:1.04422;stroke-linecap:round;stroke-linejoin:bevel;stroke-opacity:1"
       id="rect3"
       width="7.4381227"
       height="22.061661"
       x="89.701088"
       y="124.826"
       ry="11.03083"
       rx="0" /><rect
       style="fill:#969696;fill-opacity:1;stroke:#969696;stroke-width:0.568901;stroke-linecap:round;stroke-linejoin:bevel;stroke-opacity:1"
       id="rect4"
       width="2.7257457"
       height="22.691236"
       x="96.298447"
       y="124.43409"
       ry="0" /><path
       style="fill:#f0d09f;fill-opacity:1;stroke:#f0d09f;stroke-width:1.162;stroke-linecap:round;stroke-linejoin:bevel;stroke-opacity:1"
       d="m 161.67041,127.1906 c -5.3844,-0.83573 -7.65245,1.36949 -7.57914,3.30786 0.0733,1.93836 2.48787,3.60979 2.48785,5.30996 -3e-5,1.70017 -2.41459,3.42898 -2.45854,5.36735 -0.0439,1.93836 2.28268,4.08616 7.66717,3.2217 5.38449,-0.86446 13.82647,-4.74107 13.79707,-8.6178 -0.0294,-3.87673 -8.53,-7.75334 -13.91441,-8.58907 z"
       id="path10"
       inkscape:path-effect="#path-effect10"
       inkscape:original-d="m 158.55405,124.14964 c -2.26804,2.20523 -4.53609,4.41045 -6.80413,6.61568 2.41466,1.6715 4.82922,3.34293 7.24383,5.01439 -2.41466,1.72888 -4.82922,3.45769 -7.24383,5.18654 2.32671,2.14788 4.65334,4.29568 6.98001,6.44353 8.44231,-3.87677 16.88429,-7.75338 25.32644,-11.63007 -8.50095,-3.87677 -17.00155,-7.75338 -25.50232,-11.63007 z"
       transform="matrix(0.96580086,0,0,1.2454199,5.3280674,-33.387247)" /><path
       style="fill:#969696;fill-opacity:1;stroke:#969696;stroke-width:0.441354;stroke-linecap:round;stroke-linejoin:bevel;stroke-opacity:1"
       d="m 171.98078,130.01922 7.15273,5.78421 -7.23005,5.78422 z"
       id="path9" /><rect
       style="fill:#e8e288;fill-opacity:1;stroke:#d2c946;stroke-width:1.18646;stroke-linecap:round;stroke-linejoin:bevel;stroke-opacity:1"
       id="rect10"
       width="50.705891"
       height="0.89419955"
       x="100.4508"
       y="129.40053" /><rect
       style="fill:#e8e288;fill-opacity:1;stroke:#d2c946;stroke-width:1.18646;stroke-linecap:round;stroke-linejoin:bevel;stroke-opacity:1"
       id="rect10-6"
       width="50.705891"
       height="0.89419955"
       x="101.09478"
       y="141.31287" /></g></svg>
