<?xml version="1.0" encoding="UTF-8" standalone="no"?>
<!-- Created with Inkscape (http://www.inkscape.org/) -->

<svg
   version="1.1"
   id="svg1"
   width="220"
   height="197"
   viewBox="0 0 220 197"
   xml:space="preserve"
   sodipodi:docname="hootAbout.svg"
   inkscape:version="1.3.1 (91b66b0783, 2023-11-16)"
   xmlns:inkscape="http://www.inkscape.org/namespaces/inkscape"
   xmlns:sodipodi="http://sodipodi.sourceforge.net/DTD/sodipodi-0.dtd"
   xmlns="http://www.w3.org/2000/svg"
   xmlns:svg="http://www.w3.org/2000/svg"><sodipodi:namedview
     id="namedview1"
     pagecolor="#ffffff"
     bordercolor="#000000"
     borderopacity="0.25"
     inkscape:showpageshadow="2"
     inkscape:pageopacity="0.0"
     inkscape:pagecheckerboard="0"
     inkscape:deskcolor="#d1d1d1"
     inkscape:zoom="3.9441624"
     inkscape:cx="109.90927"
     inkscape:cy="98.5"
     inkscape:window-width="1920"
     inkscape:window-height="991"
     inkscape:window-x="-9"
     inkscape:window-y="-9"
     inkscape:window-maximized="1"
     inkscape:current-layer="svg1" /><defs
     id="defs1" /><g
     id="layer1"><path
       style="fill:#2abbec;fill-opacity:1;stroke:#2abbec;stroke-width:0.362;stroke-linecap:round;stroke-linejoin:bevel;stroke-opacity:1"
       d="m 80.062708,74.537858 c -6.239271,-3.905498 -19.575117,-6.2869 -25.790565,-6.858424 -6.215448,-0.571523 -5.310534,0.666781 -3.024352,4.191312 2.286181,3.524532 5.953466,9.335035 10.001893,12.69282 4.048426,3.357785 8.477743,4.262699 12.430904,4.643721 3.953161,0.381023 7.429937,0.238142 9.597021,-2.548151 2.167083,-2.786294 3.024371,-8.21578 -3.214901,-12.121278 z"
       id="path1"
       transform="matrix(1.3684806,0,0,1.2568001,-16.046884,-18.146581)" /><path
       style="fill:#2abbec;fill-opacity:1;stroke:#2abbec;stroke-width:1.19;stroke-linecap:round;stroke-linejoin:round;stroke-dasharray:none;stroke-opacity:1"
       d="m 45.703115,105.15836 c -1.547241,-5.998304 -4.214342,-2.71956 -6.454374,1.39835 -2.240032,4.11791 -4.052924,9.07479 -5.068791,12.56419 -1.015867,3.48939 -1.234664,5.51111 -1.390952,7.37136 -0.156289,1.86026 -0.250059,3.55892 0.296958,5.37727 0.547016,1.81835 1.734773,3.75627 3.110113,5.19412 1.375341,1.43785 2.938179,2.37555 4.954305,3.06616 2.016126,0.69061 4.485412,1.1341 5.506383,-6.28199 1.020971,-7.41609 0.593599,-22.69115 -0.953642,-28.68946 z"
       id="path22-9"
       transform="matrix(-0.9013573,-0.01194136,0.00907252,0.93909181,202.1533,-21.589502)" /><path
       style="fill:#32cbff;fill-opacity:1;stroke:#32cbff;stroke-width:1.19;stroke-linecap:round;stroke-linejoin:round;stroke-dasharray:none;stroke-opacity:1"
       d="m 129.11624,48.241716 c -1.56089,0.306345 -4.15751,2.552859 -6.88544,4.026228 -2.72794,1.473369 -5.58709,2.173569 -4.33249,4.405532 1.2546,2.231964 6.62279,5.99553 9.30694,7.877352 2.68415,1.881821 2.68415,1.881821 3.07803,0.481367 0.39387,-1.400453 1.18159,-4.201246 1.48793,-6.739538 0.30634,-2.538291 0.13129,-4.813936 -0.21882,-6.768713 -0.35011,-1.954777 -0.87525,-3.588574 -2.43615,-3.282228 z"
       id="path23"
       transform="matrix(1.0325294,0,0,0.96445822,22.880718,-12.011825)" /><path
       style="fill:#32cbff;fill-opacity:1;stroke:#32cbff;stroke-width:1.19;stroke-linecap:round;stroke-linejoin:round;stroke-dasharray:none;stroke-opacity:1"
       d="m 129.11624,48.241716 c -1.56089,0.306345 -4.15751,2.552859 -6.88544,4.026228 -2.72794,1.473369 -5.58709,2.173569 -4.97416,4.80832 0.61292,2.634751 4.69773,7.203771 7.60076,8.618812 2.90302,1.415042 4.62394,-0.324101 5.65947,-2.127324 1.03553,-1.803224 1.38563,-3.670419 1.47316,-5.741903 0.0875,-2.071483 -0.0875,-4.347128 -0.43764,-6.301905 -0.35011,-1.954777 -0.87525,-3.588574 -2.43615,-3.282228 z"
       id="path23-6"
       transform="matrix(-1.0325294,0,0,0.96445822,230.85581,-13.839795)" /><path
       style="fill:#32cbff;fill-opacity:1;stroke:#32cbff;stroke-width:0.39;stroke-dasharray:none;stroke-opacity:1"
       d="m 98.583661,50.958214 c -5.741909,-0.302103 -10.160418,-0.218795 -14.556273,0.410321 -4.395854,0.629115 -8.768618,1.803966 -13.604338,4.780583 -4.83572,2.976618 -10.133818,7.754646 -14.206429,14.733387 -4.072612,6.97874 -6.919305,16.157539 -8.778373,22.330148 -1.859068,6.172609 -2.730417,9.338717 -3.652065,12.773947 -0.921648,3.43524 -1.893539,7.13939 -2.144889,11.52186 -0.251351,4.38248 0.217837,9.44301 1.793028,14.20206 1.57519,4.75905 4.256265,9.21634 7.456898,12.66832 3.200634,3.45198 6.92063,5.89846 11.76348,8.09365 4.84285,2.1952 10.808125,4.13893 16.762982,5.36222 5.954858,1.22329 11.898703,1.726 17.596155,1.72599 5.697453,0 11.148183,-0.50271 17.174803,-1.49697 6.02662,-0.99427 12.62864,-2.48 17.87371,-5.02712 5.24506,-2.54713 9.13262,-6.15541 12.38352,-10.03633 3.25089,-3.88093 5.86494,-8.03426 7.15523,-13.36307 1.2903,-5.32881 1.25678,-11.83262 -0.50274,-18.0843 -1.75953,-6.25168 -5.24493,-12.250588 -7.24538,-17.667922 -2.00045,-5.417334 -2.51587,-10.252676 -3.6277,-15.131319 -1.11182,-4.878642 -2.81993,-9.799978 -6.54762,-14.16029 -3.72769,-4.360312 -9.47449,-8.159054 -15.88076,-10.402308 -6.40626,-2.243254 -13.47133,-2.930755 -19.213239,-3.232857 z"
       id="path20"
       transform="matrix(0.78636509,0,0,0.81512896,50.522458,-4.930135)" /><path
       style="fill:#f8e9d2;fill-opacity:1;stroke:#faeedb;stroke-width:0.39;stroke-dasharray:none;stroke-opacity:1"
       d="m 90.950964,68.45115 c -3.53748,-0.861924 -7.811188,-2.549859 -11.45644,-3.357912 -3.645251,-0.808054 -6.661926,-0.736228 -9.786433,0.305284 -3.124508,1.041512 -6.356659,3.052628 -9.006627,6.713531 -2.649969,3.660903 -4.717567,8.971235 -5.094666,14.035141 -0.3771,5.063906 0.93637,9.880876 3.4427,13.420708 2.50633,3.539828 6.20535,5.802338 10.658677,6.466728 4.453327,0.66439 9.660682,-0.26934 13.862596,-1.06199 4.201913,-0.79265 7.39815,-1.44418 11.36664,-1.44417 3.968491,0 8.708979,0.65153 13.582619,1.30385 4.87364,0.65232 9.88003,1.30537 13.97426,0.17407 4.09422,-1.1313 7.27584,-4.04687 9.26174,-6.797603 1.9859,-2.75073 2.77598,-5.33645 3.26082,-8.281391 0.48483,-2.944941 0.66439,-6.248918 -0.44895,-10.055792 -1.11334,-3.806874 -3.5195,-8.11641 -6.71585,-11.007462 -3.19634,-2.891053 -7.18266,-4.363478 -10.45082,-4.974005 -3.26815,-0.610527 -5.81795,-0.359138 -8.58332,0.700329 -2.76537,1.059466 -5.74614,2.926934 -8.6372,3.842728 -2.891067,0.915793 -5.692265,0.87988 -9.229746,0.01796 z"
       id="path19"
       transform="matrix(0.78636509,0,0,0.81512896,50.606219,-4.390143)" /><ellipse
       style="fill:#f8e9d2;fill-opacity:1;stroke:#faeedb;stroke-width:0.443072;stroke-dasharray:none;stroke-opacity:1"
       id="path6"
       ry="20.230164"
       rx="25.84845"
       cy="101.69901"
       cx="125.67993" /><path
       style="fill:#edb536;fill-opacity:1;stroke:#ee88ee;stroke-width:0.3;stroke-dasharray:none;stroke-opacity:0.133333"
       d="m 96.556369,92.223805 c 1.765119,0.08753 3.457301,-1.342074 3.851161,-2.421575 0.39386,-1.079501 -0.510564,-1.808875 -1.487954,-2.290274 -0.977391,-0.481398 -2.027688,-0.714797 -3.340602,-0.437622 -1.312914,0.277176 -2.888361,1.064899 -2.757053,2.261111 0.131309,1.196213 1.969329,2.800834 3.734448,2.88836 z"
       id="path11"
       transform="matrix(0.85281593,0,0,1.0634926,43.249447,-26.638942)" /><ellipse
       style="fill:#62466b;fill-opacity:1;stroke:#62466b;stroke-width:0.289451;stroke-dasharray:none;stroke-opacity:1"
       id="path4"
       cx="139.56102"
       cy="65.914017"
       rx="6.2391372"
       ry="6.4673538" /><ellipse
       style="fill:#62466b;fill-opacity:1;stroke:#62466b;stroke-width:0.289451;stroke-dasharray:none;stroke-opacity:1"
       id="path4-3"
       cx="111.79883"
       cy="65.914017"
       rx="6.2391372"
       ry="6.4673538" /><path
       style="fill:none;fill-opacity:1;stroke:#13aee7;stroke-width:1.5;stroke-linecap:round;stroke-linejoin:round;stroke-dasharray:none;stroke-opacity:1"
       d="m 160.00482,84.341264 c 1.16717,1.97215 2.33435,3.944305 3.47617,3.918912 1.14181,-0.02539 2.25822,-2.048253 3.37465,-4.071153"
       id="path21"
       transform="matrix(0.78636509,0,0,0.81512896,-16.658735,25.225115)" /><path
       style="fill:none;fill-opacity:1;stroke:#13ade7;stroke-width:1.5;stroke-linecap:round;stroke-linejoin:round;stroke-dasharray:none;stroke-opacity:1"
       d="m 160.00482,84.341264 c 1.16717,1.97215 2.33435,3.944305 3.47617,3.918912 1.14181,-0.02539 2.25822,-2.048253 3.37465,-4.071153"
       id="path21-4"
       transform="matrix(0.78636509,0,0,0.81512896,11.045198,25.880351)" /><path
       style="fill:none;fill-opacity:1;stroke:#13aee7;stroke-width:1.5;stroke-linecap:round;stroke-linejoin:round;stroke-dasharray:none;stroke-opacity:1"
       d="m 160.00482,84.341264 c 1.16717,1.97215 2.33435,3.944305 3.47617,3.918912 1.14181,-0.02539 2.25822,-2.048253 3.37465,-4.071153"
       id="path21-2"
       transform="matrix(0.78636509,0,0,0.81512896,-2.8359022,25.225115)" /><path
       style="fill:none;fill-opacity:1;stroke:#13aee7;stroke-width:1.5;stroke-linecap:round;stroke-linejoin:round;stroke-dasharray:none;stroke-opacity:1"
       d="m 160.00482,84.341264 c 1.16717,1.97215 2.33435,3.944305 3.47617,3.918912 1.14181,-0.02539 2.25822,-2.048253 3.37465,-4.071153"
       id="path21-7"
       transform="matrix(0.78636509,0,0,0.81512896,3.4016618,37.514899)" /><path
       style="fill:none;fill-opacity:1;stroke:#13aee7;stroke-width:1.5;stroke-linecap:round;stroke-linejoin:round;stroke-dasharray:none;stroke-opacity:1"
       d="m 160.00482,84.341264 c 1.16717,1.97215 2.33435,3.944305 3.47617,3.918912 1.14181,-0.02539 2.25822,-2.048253 3.37465,-4.071153"
       id="path21-40"
       transform="matrix(0.78636509,0,0,0.81512896,-10.335715,37.514899)" /></g><g
     id="layer2"><path
       style="fill:#a58061;fill-opacity:1;stroke:#a58061;stroke-width:1.5;stroke-linecap:round;stroke-linejoin:bevel;stroke-dasharray:none;stroke-opacity:1"
       d="m 220,103.01062 c -13.99613,6.38003 -27.99225,12.76006 -46.56354,16.81106 -18.57128,4.05099 -41.71679,5.77289 -58.39312,5.44597 -16.676338,-0.32691 -26.88242,-2.70254 -40.850175,-3.97573 -13.967756,-1.27319 -31.69586,-1.4438 -49.424318,-1.61441 0,0 21.227625,1.59613 21.227625,1.59613 0,0 25.067769,1.92501 25.067769,1.92501 10.381513,2.68436 20.763024,5.36873 22.003859,6.78807 1.240836,1.41935 -6.658689,1.57367 -15.553044,3.00118 -8.894356,1.42752 -18.782987,4.12812 -28.671816,6.82877 0,0 -11.805712,0.69445 -11.805712,0.69445 0,0 10.879774,0.69445 10.879774,0.69445 0,0 25.694785,-5.32414 25.694785,-5.32414 6.839273,-0.38581 13.678546,-0.77161 21.712345,-2.12102 8.033798,-1.3494 17.261578,-3.66226 28.870118,-4.70636 11.60855,-1.0441 25.59647,-0.81932 38.5428,-2.10924 12.94633,-1.28993 24.8495,-4.09441 34.21972,-6.08865 9.37022,-1.99424 16.2065,-3.17803 23.04293,-4.36184"
       id="path26" /><rect
       style="fill:#edb536;fill-opacity:1;stroke:#ebab1b;stroke-width:1.10488;stroke-linecap:round;stroke-linejoin:bevel;stroke-dasharray:none;stroke-opacity:1"
       id="rect26-91-0"
       width="3.8082778"
       height="8.2457781"
       x="144.04074"
       y="118.02782"
       ry="2.3869367" /><rect
       style="fill:#edb536;fill-opacity:1;stroke:#ebab1b;stroke-width:1.10488;stroke-linecap:round;stroke-linejoin:bevel;stroke-dasharray:none;stroke-opacity:1"
       id="rect26-91-7"
       width="3.8082778"
       height="8.2457781"
       x="139.47517"
       y="118.02782"
       ry="2.3869367" /><rect
       style="fill:#edb536;fill-opacity:1;stroke:#ebab1b;stroke-width:1.10488;stroke-linecap:round;stroke-linejoin:bevel;stroke-dasharray:none;stroke-opacity:1"
       id="rect26-91-8"
       width="3.8082778"
       height="8.2457781"
       x="135.6669"
       y="118.02782"
       ry="2.3869367" /><rect
       style="fill:#edb536;fill-opacity:1;stroke:#ebab1b;stroke-width:1.10488;stroke-linecap:round;stroke-linejoin:bevel;stroke-dasharray:none;stroke-opacity:1"
       id="rect26-91-0-3"
       width="3.8082778"
       height="8.2457781"
       x="112.99258"
       y="118.37069"
       ry="2.3869367" /><rect
       style="fill:#edb536;fill-opacity:1;stroke:#ebab1b;stroke-width:1.10488;stroke-linecap:round;stroke-linejoin:bevel;stroke-dasharray:none;stroke-opacity:1"
       id="rect26-91-7-6"
       width="3.8082778"
       height="8.2457781"
       x="108.42701"
       y="118.37069"
       ry="2.3869367" /><rect
       style="fill:#edb536;fill-opacity:1;stroke:#ebab1b;stroke-width:1.10488;stroke-linecap:round;stroke-linejoin:bevel;stroke-dasharray:none;stroke-opacity:1"
       id="rect26-91-8-2"
       width="3.8082778"
       height="8.2457781"
       x="104.61874"
       y="118.37069"
       ry="2.3869367" /><path
       style="fill:#7dce82;fill-opacity:1;stroke:#7dce82;stroke-width:0.165456;stroke-linecap:round;stroke-linejoin:bevel;stroke-dasharray:none;stroke-opacity:1"
       d="m 30.744786,43.368473 c 2.545098,0.559921 7.278981,1.425255 10.333112,3.639526 3.054132,2.214271 4.428457,5.777337 4.606604,8.933286 0.178147,3.15595 -0.839872,5.904601 -3.944944,7.049891 -3.105072,1.145289 -8.296968,0.687181 -11.020226,-3.028733 -2.723257,-3.715913 -2.977762,-10.689342 -2.926856,-14.048869 0.05091,-3.359527 0.407212,-3.105023 2.95231,-2.545101 z"
       id="path27-4"
       transform="matrix(0.22059516,-0.32686615,0.29515169,0.19919174,9.9431856,143.06656)" /><path
       style="fill:#7dce82;fill-opacity:1;stroke:#7dce82;stroke-width:0.165456;stroke-linecap:round;stroke-linejoin:bevel;stroke-dasharray:none;stroke-opacity:1"
       d="m 30.744786,43.368473 c 2.545098,0.559921 7.278981,1.425255 10.333112,3.639526 3.054132,2.214271 4.428457,5.777337 4.606604,8.933286 0.178147,3.15595 -0.839872,5.904601 -3.944944,7.049891 -3.105072,1.145289 -8.296968,0.687181 -11.020226,-3.028733 -2.723257,-3.715913 -2.977762,-10.689342 -2.926856,-14.048869 0.05091,-3.359527 0.407212,-3.105023 2.95231,-2.545101 z"
       id="path27-0"
       transform="matrix(0.39433958,0,0,0.35607846,29.334751,97.345772)" /><path
       style="fill:#7dce82;fill-opacity:1;stroke:#7dce82;stroke-width:0.165456;stroke-linecap:round;stroke-linejoin:bevel;stroke-dasharray:none;stroke-opacity:1"
       d="m 30.744786,43.368473 c 2.545098,0.559921 7.278981,1.425255 10.333112,3.639526 3.054132,2.214271 4.428457,5.777337 4.606604,8.933286 0.178147,3.15595 -0.839872,5.904601 -3.944944,7.049891 -3.105072,1.145289 -8.296968,0.687181 -11.020226,-3.028733 -2.723257,-3.715913 -2.977762,-10.689342 -2.926856,-14.048869 0.05091,-3.359527 0.407212,-3.105023 2.95231,-2.545101 z"
       id="path27-44"
       transform="matrix(0.35336487,0.17503421,-0.15805137,0.31907935,62.318239,93.72309)" /><path
       style="fill:#7dce82;fill-opacity:1;stroke:#7dce82;stroke-width:0.165456;stroke-linecap:round;stroke-linejoin:bevel;stroke-dasharray:none;stroke-opacity:1"
       d="m 30.744786,43.368473 c 2.545098,0.559921 7.278981,1.425255 10.333112,3.639526 3.054132,2.214271 4.428457,5.777337 4.606604,8.933286 0.178147,3.15595 -0.839872,5.904601 -3.944944,7.049891 -3.105072,1.145289 -8.296968,0.687181 -11.020226,-3.028733 -2.723257,-3.715913 -2.977762,-10.689342 -2.926856,-14.048869 0.05091,-3.359527 0.407212,-3.105023 2.95231,-2.545101 z"
       id="path27-5"
       transform="matrix(-0.06953436,0.3475363,-0.22721746,0.04879186,87.745019,115.24922)" /><path
       style="fill:#7dce82;fill-opacity:1;stroke:#48ba4f;stroke-width:1.05747;stroke-linecap:round;stroke-linejoin:bevel;stroke-dasharray:none;stroke-opacity:1"
       d="m 30.744786,43.368473 c 2.545098,0.559921 7.278981,1.425255 10.333112,3.639526 3.054132,2.214271 4.428457,5.777337 4.606604,8.933286 0.178147,3.15595 -0.839872,5.904601 -3.944944,7.049891 -3.105072,1.145289 -8.296968,0.687181 -11.020226,-3.028733 -2.723257,-3.715913 -2.977762,-10.689342 -2.926856,-14.048869 0.05091,-3.359527 0.407212,-3.105023 2.95231,-2.545101 z"
       id="path27-9"
       transform="matrix(0.31802579,0,0,0.35636739,52.625119,98.911296)" /><path
       style="fill:#7dce82;fill-opacity:1;stroke:#48ba4f;stroke-width:0.966052;stroke-linecap:round;stroke-linejoin:bevel;stroke-dasharray:none;stroke-opacity:1"
       d="m 30.744786,43.368473 c 2.545098,0.559921 7.278981,1.425255 10.333112,3.639526 3.054132,2.214271 4.428457,5.777337 4.606604,8.933286 0.178147,3.15595 -0.839872,5.904601 -3.944944,7.049891 -3.105072,1.145289 -8.296968,0.687181 -11.020226,-3.028733 -2.723257,-3.715913 -2.977762,-10.689342 -2.926856,-14.048869 0.05091,-3.359527 0.407212,-3.105023 2.95231,-2.545101 z"
       id="path27-04"
       transform="matrix(0.11145962,0.37825977,-0.34155881,0.10064516,63.149497,96.827554)" /><path
       style="fill:#7dce82;fill-opacity:1;stroke:#48ba4f;stroke-width:0.966052;stroke-linecap:round;stroke-linejoin:bevel;stroke-dasharray:none;stroke-opacity:1"
       d="m 30.744786,43.368473 c 2.545098,0.559921 7.278981,1.425255 10.333112,3.639526 3.054132,2.214271 4.428457,5.777337 4.606604,8.933286 0.178147,3.15595 -0.839872,5.904601 -3.944944,7.049891 -3.105072,1.145289 -8.296968,0.687181 -11.020226,-3.028733 -2.723257,-3.715913 -2.977762,-10.689342 -2.926856,-14.048869 0.05091,-3.359527 0.407212,-3.105023 2.95231,-2.545101 z"
       id="path27-2"
       transform="matrix(0.39433958,0,0,0.35607846,20.681519,118.28622)" /><path
       style="fill:#7dce82;fill-opacity:1;stroke:#7dce82;stroke-width:0.966052;stroke-linecap:round;stroke-linejoin:bevel;stroke-dasharray:none;stroke-opacity:1"
       d="m 30.744786,43.368473 c 2.545098,0.559921 7.278981,1.425255 10.333112,3.639526 3.054132,2.214271 4.428457,5.777337 4.606604,8.933286 0.178147,3.15595 -0.839872,5.904601 -3.944944,7.049891 -3.105072,1.145289 -8.296968,0.687181 -11.020226,-3.028733 -2.723257,-3.715913 -2.977762,-10.689342 -2.926856,-14.048869 0.05091,-3.359527 0.407212,-3.105023 2.95231,-2.545101 z"
       id="path27-45"
       transform="matrix(0.39433958,0,0,0.35607846,8.15446,97.090454)" /><path
       style="fill:#7dce82;fill-opacity:1;stroke:#48ba4f;stroke-width:0.966052;stroke-linecap:round;stroke-linejoin:bevel;stroke-dasharray:none;stroke-opacity:1"
       d="m 30.744786,43.368473 c 2.545098,0.559921 7.278981,1.425255 10.333112,3.639526 3.054132,2.214271 4.428457,5.777337 4.606604,8.933286 0.178147,3.15595 -0.839872,5.904601 -3.944944,7.049891 -3.105072,1.145289 -8.296968,0.687181 -11.020226,-3.028733 -2.723257,-3.715913 -2.977762,-10.689342 -2.926856,-14.048869 0.05091,-3.359527 0.407212,-3.105023 2.95231,-2.545101 z"
       id="path27"
       transform="matrix(0.05512068,0.3904682,-0.3525827,0.04977255,44.880466,99.127443)" /><path
       style="fill:#7dce82;fill-opacity:1;stroke:#48ba4f;stroke-width:0.362;stroke-linecap:round;stroke-linejoin:bevel;stroke-dasharray:none;stroke-opacity:1"
       d="m 48.445944,115.93456 2.836142,-5.61441"
       id="path31"
       transform="translate(-0.69827843,2.7598624)" /><path
       style="fill:#7dce82;fill-opacity:1;stroke:#48ba4f;stroke-width:0.362;stroke-linecap:round;stroke-linejoin:bevel;stroke-dasharray:none;stroke-opacity:1"
       d="m 65.173396,120.21771 -2.778262,-4.63043"
       id="path32" /><path
       style="fill:#7dce82;fill-opacity:1;stroke:#48ba4f;stroke-width:0.362;stroke-linecap:round;stroke-linejoin:bevel;stroke-dasharray:none;stroke-opacity:1"
       d="m 41.731811,111.76717 4.225273,4.74619"
       id="path33"
       transform="translate(-0.66502708,1.9285785)" /><path
       style="fill:#7dce82;fill-opacity:1;stroke:#48ba4f;stroke-width:0.362;stroke-linecap:round;stroke-linejoin:bevel;stroke-dasharray:none;stroke-opacity:1"
       d="m 66.099484,114.48755 0.405163,2.08369"
       id="path34" /><path
       style="fill:#7dce82;fill-opacity:1;stroke:#48ba4f;stroke-width:0.362;stroke-linecap:round;stroke-linejoin:bevel;stroke-dasharray:none;stroke-opacity:1"
       d="m 71.250844,133.12505 3.472828,-4.74619"
       id="path35" /><path
       style="fill:#7dce82;fill-opacity:1;stroke:#48ba4f;stroke-width:0.362;stroke-linecap:round;stroke-linejoin:bevel;stroke-dasharray:none;stroke-opacity:1"
       d="m 26.798652,118.42342 2.604621,-4.51468"
       id="path36" /><path
       style="fill:#7dce82;fill-opacity:1;stroke:#48ba4f;stroke-width:0.362;stroke-linecap:round;stroke-linejoin:bevel;stroke-dasharray:none;stroke-opacity:1"
       d="M 23.383705,117.38157 20.25816,113.38782"
       id="path37" /><path
       style="fill:#7dce82;fill-opacity:1;stroke:#48ba4f;stroke-width:0.362;stroke-linecap:round;stroke-linejoin:bevel;stroke-dasharray:none;stroke-opacity:1"
       d="m 37.275015,139.08674 -4.746197,-4.39891"
       id="path38" /><path
       style="fill:#7dce82;fill-opacity:1;stroke:#48ba4f;stroke-width:0.362;stroke-linecap:round;stroke-linejoin:bevel;stroke-dasharray:none;stroke-opacity:1"
       d="m 36.291047,141.80712 -5.614404,0.69457"
       id="path39" /><path
       style="fill:#7dce82;fill-opacity:1;stroke:#48ba4f;stroke-width:0.966052;stroke-linecap:round;stroke-linejoin:bevel;stroke-dasharray:none;stroke-opacity:1"
       d="m 30.744786,43.368473 c 2.545098,0.559921 7.278981,1.425255 10.333112,3.639526 3.054132,2.214271 4.428457,5.777337 4.606604,8.933286 0.178147,3.15595 -0.839872,5.904601 -3.944944,7.049891 -3.105072,1.145289 -8.296968,0.687181 -11.020226,-3.028733 -2.723257,-3.715913 -2.977762,-10.689342 -2.926856,-14.048869 0.05091,-3.359527 0.407212,-3.105023 2.95231,-2.545101 z"
       id="path27-04-5"
       transform="matrix(-0.10177834,-0.38097883,0.34401405,-0.09190322,93.131207,152.77503)" /><path
       style="fill:#7dce82;fill-opacity:1;stroke:#7dce82;stroke-width:0.966052;stroke-linecap:round;stroke-linejoin:bevel;stroke-dasharray:none;stroke-opacity:1"
       d="m 30.744786,43.368473 c 2.545098,0.559921 7.278981,1.425255 10.333112,3.639526 3.054132,2.214271 4.428457,5.777337 4.606604,8.933286 0.178147,3.15595 -0.839872,5.904601 -3.944944,7.049891 -3.105072,1.145289 -8.296968,0.687181 -11.020226,-3.028733 -2.723257,-3.715913 -2.977762,-10.689342 -2.926856,-14.048869 0.05091,-3.359527 0.407212,-3.105023 2.95231,-2.545101 z"
       id="path27-45-7"
       transform="matrix(-0.38850834,-0.06756459,0.06100908,-0.350813,124.51526,154.44273)" /><path
       style="fill:#7dce82;fill-opacity:1;stroke:#48ba4f;stroke-width:0.966052;stroke-linecap:round;stroke-linejoin:bevel;stroke-dasharray:none;stroke-opacity:1"
       d="m 30.744786,43.368473 c 2.545098,0.559921 7.278981,1.425255 10.333112,3.639526 3.054132,2.214271 4.428457,5.777337 4.606604,8.933286 0.178147,3.15595 -0.839872,5.904601 -3.944944,7.049891 -3.105072,1.145289 -8.296968,0.687181 -11.020226,-3.028733 -2.723257,-3.715913 -2.977762,-10.689342 -2.926856,-14.048869 0.05091,-3.359527 0.407212,-3.105023 2.95231,-2.545101 z"
       id="path27-04-53"
       transform="matrix(-0.30384295,-0.31045145,0.22330337,-0.34442784,109.60241,165.20656)" /><path
       style="fill:#7dce82;fill-opacity:1;stroke:#7dce82;stroke-width:0.966052;stroke-linecap:round;stroke-linejoin:bevel;stroke-dasharray:none;stroke-opacity:1"
       d="m 30.744786,43.368473 c 2.545098,0.559921 7.278981,1.425255 10.333112,3.639526 3.054132,2.214271 4.428457,5.777337 4.606604,8.933286 0.178147,3.15595 -0.839872,5.904601 -3.944944,7.049891 -3.105072,1.145289 -8.296968,0.687181 -11.020226,-3.028733 -2.723257,-3.715913 -2.977762,-10.689342 -2.926856,-14.048869 0.05091,-3.359527 0.407212,-3.105023 2.95231,-2.545101 z"
       id="path27-45-3"
       transform="matrix(0.39433958,0,0,0.35607846,183.72612,89.169518)" /><path
       style="fill:#7dce82;fill-opacity:1;stroke:#48ba4f;stroke-width:0.966052;stroke-linecap:round;stroke-linejoin:bevel;stroke-dasharray:none;stroke-opacity:1"
       d="m 30.744786,43.368473 c 2.545098,0.559921 7.278981,1.425255 10.333112,3.639526 3.054132,2.214271 4.428457,5.777337 4.606604,8.933286 0.178147,3.15595 -0.839872,5.904601 -3.944944,7.049891 -3.105072,1.145289 -8.296968,0.687181 -11.020226,-3.028733 -2.723257,-3.715913 -2.977762,-10.689342 -2.926856,-14.048869 0.05091,-3.359527 0.407212,-3.105023 2.95231,-2.545101 z"
       id="path27-04-51"
       transform="matrix(0.28108793,0.36221076,-0.34444162,0.24101198,211.89714,80.21885)" /><path
       style="fill:#7dce82;fill-opacity:1;stroke:#7dce82;stroke-width:0.966052;stroke-linecap:round;stroke-linejoin:bevel;stroke-dasharray:none;stroke-opacity:1"
       d="m 30.744786,43.368473 c 2.545098,0.559921 7.278981,1.425255 10.333112,3.639526 3.054132,2.214271 4.428457,5.777337 4.606604,8.933286 0.178147,3.15595 -0.839872,5.904601 -3.944944,7.049891 -3.105072,1.145289 -8.296968,0.687181 -11.020226,-3.028733 -2.723257,-3.715913 -2.977762,-10.689342 -2.926856,-14.048869 0.05091,-3.359527 0.407212,-3.105023 2.95231,-2.545101 z"
       id="path27-45-39"
       transform="matrix(-0.38780765,-0.16879448,0.09474345,-0.38586508,184.58423,156.7294)" /><path
       style="fill:#7dce82;fill-opacity:1;stroke:#48ba4f;stroke-width:0.362;stroke-linecap:round;stroke-linejoin:bevel;stroke-dasharray:none;stroke-opacity:1"
       d="m 110.22539,131.89957 c 0.15454,2.434 0.30908,4.868 0.46362,7.302"
       id="path41" /><path
       style="fill:#7dce82;fill-opacity:1;stroke:#48ba4f;stroke-width:0.362;stroke-linecap:round;stroke-linejoin:bevel;stroke-dasharray:none;stroke-opacity:1"
       d="m 113.35482,131.43595 c 0.57952,1.35222 1.15905,2.70445 1.73857,4.05667"
       id="path42" /><path
       style="fill:#7dce82;fill-opacity:1;stroke:#48ba4f;stroke-width:0.362;stroke-linecap:round;stroke-linejoin:bevel;stroke-dasharray:none;stroke-opacity:1"
       d="m 107.44367,134.10176 c -0.54088,0.8886 -1.08177,1.77721 -1.62266,2.66581"
       id="path43" /><path
       style="fill:#7dce82;fill-opacity:1;stroke:#48ba4f;stroke-width:0.362;stroke-linecap:round;stroke-linejoin:bevel;stroke-dasharray:none;stroke-opacity:1"
       d="m 173.85708,126.68386 c 0.81133,2.08628 1.62267,4.17257 2.434,6.25885"
       id="path44" /><path
       style="fill:#7dce82;fill-opacity:1;stroke:#48ba4f;stroke-width:0.362;stroke-linecap:round;stroke-linejoin:bevel;stroke-dasharray:none;stroke-opacity:1"
       d="m 202.48554,109.06634 c 0.69543,-2.00901 1.39086,-4.01803 2.08629,-6.02704"
       id="path45" /><path
       style="fill:#7dce82;fill-opacity:1;stroke:#48ba4f;stroke-width:0.362;stroke-linecap:round;stroke-linejoin:bevel;stroke-dasharray:none;stroke-opacity:1"
       d="m 200.51516,110.68901 c -1.6613,-1.6613 -3.3226,-3.3226 -4.9839,-4.98391"
       id="path46" /><ellipse
       style="fill:none;fill-opacity:1;stroke:#6d4f36;stroke-width:0.0680588;stroke-linecap:round;stroke-linejoin:bevel;stroke-dasharray:none;stroke-opacity:1"
       id="path47"
       cx="93.407829"
       cy="125.58685"
       rx="2.0969043"
       ry="0.75092131" /></g></svg>
